<?xml version="1.0" standalone="no"?>
<!DOCTYPE svg PUBLIC "-//W3C//DTD SVG 20010904//EN"
 "http://www.w3.org/TR/2001/REC-SVG-20010904/DTD/svg10.dtd">
<svg version="1.0" xmlns="http://www.w3.org/2000/svg"
 width="1800.000000pt" height="1800.000000pt" viewBox="0 0 1800.000000 1800.000000"
 preserveAspectRatio="xMidYMid meet">
<metadata>
Created by potrace 1.12, written by Peter Selinger 2001-2015
</metadata>
<g transform="translate(0.000000,1800.000000) scale(0.100000,-0.100000)"
fill="#000000" stroke="none">
<path d="M5842 17596 c3 -391 4 -406 24 -432 47 -64 63 -69 207 -68 112 0 163
6 332 39 192 38 208 40 400 40 193 0 207 -1 400 -40 193 -38 207 -40 400 -40
191 0 209 2 400 39 331 64 470 64 800 0 191 -37 209 -39 400 -39 191 0 209 2
400 39 331 64 470 64 800 0 191 -37 209 -39 400 -39 191 0 209 2 400 39 331
64 470 64 800 0 191 -37 209 -39 400 -39 191 0 209 2 400 39 331 64 470 64
800 0 191 -37 209 -39 400 -39 191 0 209 2 400 39 331 64 470 64 800 0 191
-37 209 -39 400 -39 191 0 209 2 400 39 328 63 475 63 800 0 158 -30 219 -37
360 -41 152 -5 187 -2 322 21 84 14 157 26 163 26 7 0 10 -498 10 -1513 l0
-1514 -132 -24 c-112 -20 -164 -24 -328 -24 -185 0 -206 2 -395 39 -331 64
-470 64 -800 0 -191 -37 -209 -39 -400 -39 -191 0 -209 2 -400 39 -331 64
-470 64 -800 0 -191 -37 -209 -39 -400 -39 -193 0 -207 2 -400 40 -193 39
-207 40 -400 40 -220 0 -237 -4 -288 -65 -52 -61 -49 -88 36 -385 14 -49 33
-119 43 -155 9 -36 22 -87 30 -115 23 -88 42 -169 54 -220 24 -107 31 -124 65
-154 38 -33 57 -37 185 -45 47 -3 173 -22 280 -43 186 -36 204 -38 395 -38
191 0 209 2 400 39 330 63 469 64 800 0 158 -30 225 -38 317 -38 65 -1 118 -2
118 -3 0 0 11 -77 25 -170 46 -320 135 -1055 135 -1124 0 -23 -10 -29 -142
-78 -160 -59 -345 -145 -460 -213 -42 -26 -79 -44 -82 -40 -3 3 -6 24 -6 47 0
99 -116 1251 -136 1347 l-5 26 -77 -31 c-197 -81 -652 -324 -652 -348 0 -5 9
-105 20 -222 38 -409 82 -1024 106 -1485 l7 -132 57 93 c75 124 157 232 250
330 l75 79 98 -1 c54 -1 162 -13 240 -26 400 -71 372 -67 552 -62 141 4 202
11 360 41 323 63 478 63 800 0 256 -49 466 -57 655 -24 69 12 142 24 163 27
l37 6 0 -420 0 -419 -137 -24 c-115 -21 -169 -25 -328 -25 -178 0 -202 3 -385
38 -107 21 -231 40 -275 44 -44 3 -92 12 -106 19 -82 41 -511 165 -525 151 -2
-2 0 -93 6 -203 14 -282 30 -863 30 -1102 l0 -203 39 -57 c104 -155 163 -340
186 -587 l6 -70 -188 -35 c-174 -32 -202 -35 -383 -35 -185 0 -206 2 -395 39
-325 63 -471 63 -796 2 -102 -19 -214 -38 -248 -42 l-62 -7 6 -41 c38 -244
133 -520 230 -672 36 -56 38 -62 36 -139 -6 -285 -90 -1497 -105 -1513 -9 -8
-243 77 -353 128 -128 60 -264 141 -371 219 l-83 61 6 58 c9 91 33 500 50 832
33 692 39 987 39 1870 0 1006 -17 1592 -69 2400 -8 124 -18 276 -21 338 l-7
114 148 148 147 147 -138 26 c-227 43 -270 48 -413 48 -136 0 -154 -3 -541
-72 -72 -12 -153 -18 -255 -18 -102 0 -183 6 -255 18 -388 69 -405 72 -543 72
-96 0 -179 -7 -268 -22 -71 -12 -133 -19 -136 -15 -12 11 -68 925 -58 935 6 5
80 21 166 35 211 36 379 36 579 1 407 -71 373 -68 560 -62 96 3 193 10 215 17
53 16 111 76 120 123 5 26 0 63 -15 120 -12 45 -26 98 -30 117 -4 19 -18 71
-30 115 -12 44 -25 91 -27 105 -3 14 -15 59 -28 100 -12 41 -30 104 -40 140
-45 175 -66 229 -101 259 -38 34 -57 38 -209 45 -66 3 -187 19 -300 41 -327
62 -473 62 -800 -1 -191 -37 -209 -39 -400 -39 -191 0 -209 2 -400 39 -331 64
-470 64 -800 0 -191 -37 -209 -39 -400 -39 -191 0 -209 2 -400 39 -327 63
-473 63 -800 1 -104 -20 -237 -39 -295 -42 -58 -2 -119 -9 -137 -14 -49 -16
-90 -68 -103 -136 -6 -32 -22 -92 -35 -133 -13 -41 -31 -103 -39 -137 -15 -58
-24 -95 -63 -243 -8 -30 -25 -91 -38 -135 -56 -193 -56 -220 -4 -280 48 -54
79 -60 309 -60 197 0 213 2 405 39 331 64 470 64 800 0 191 -37 209 -39 400
-39 190 0 209 2 395 38 162 31 401 60 337 41 -16 -5 -18 -14 -13 -67 3 -34 8
-233 11 -442 3 -209 8 -484 11 -611 l7 -231 -39 -7 c-64 -13 -322 -101 -446
-154 l-118 -50 0 709 c0 412 -4 709 -9 709 -23 0 -373 -126 -505 -181 l-146
-62 0 -651 c0 -358 -3 -728 -7 -821 -6 -168 -6 -171 15 -172 12 -1 85 -14 164
-30 128 -25 164 -28 343 -28 191 0 209 2 400 39 331 64 470 64 800 0 191 -37
209 -39 400 -39 191 0 209 2 400 39 328 63 475 63 800 0 158 -30 219 -37 360
-41 177 -5 199 -3 512 55 l102 19 -50 -98 c-66 -133 -157 -348 -209 -494 l-42
-120 11 -495 c17 -782 9 -2144 -15 -2430 l-7 -75 -14 40 c-32 89 -103 390
-129 546 l-27 167 -151 5 c-115 4 -195 13 -336 40 -102 20 -213 39 -246 42
l-61 7 -7 97 c-22 316 -79 593 -170 829 l-33 87 56 5 c97 9 259 -8 456 -45
136 -27 229 -38 326 -42 l137 -5 6 93 c19 254 64 566 111 774 14 61 28 121 31
135 l6 25 -174 -3 c-183 -4 -157 -7 -558 63 -201 35 -371 35 -575 -1 -83 -14
-209 -36 -282 -49 -73 -12 -143 -30 -157 -39 -61 -40 -18 -123 129 -246 l77
-65 -6 -1200 c-3 -660 -10 -1353 -15 -1540 -11 -385 -15 -361 70 -389 65 -20
71 -20 113 5 50 29 179 253 259 451 14 33 19 37 59 40 88 6 259 -12 443 -48
243 -47 452 -56 633 -29 98 15 117 16 121 4 2 -8 37 -79 77 -159 83 -166 184
-325 289 -456 l74 -91 -97 -5 c-53 -3 -164 -17 -247 -32 -82 -15 -164 -29
-182 -32 -41 -6 -92 -48 -109 -91 -11 -25 -14 -100 -14 -323 0 -319 2 -335 59
-383 49 -41 84 -42 248 -11 132 26 170 29 348 29 193 0 207 -1 400 -40 193
-38 207 -40 400 -40 191 0 209 2 400 39 331 64 470 64 800 0 191 -37 209 -39
400 -39 191 0 209 2 400 39 328 63 475 63 800 0 256 -49 467 -57 655 -24 69
12 142 24 163 27 l37 6 0 -450 0 -449 -137 -24 c-115 -21 -169 -25 -328 -25
-178 0 -202 3 -390 39 -331 64 -470 64 -800 0 -191 -37 -209 -39 -400 -39
-191 0 -209 2 -400 39 -331 64 -470 64 -800 0 -191 -37 -209 -39 -400 -39
-191 0 -209 2 -400 39 -331 64 -470 64 -800 0 -191 -37 -209 -39 -400 -39
-191 0 -209 2 -400 39 -331 64 -470 64 -800 0 -191 -37 -209 -39 -400 -39
-191 0 -209 2 -400 39 -328 63 -475 63 -800 0 -158 -30 -219 -37 -360 -41
-181 -5 -152 -9 -555 62 -170 30 -367 34 -520 10 -97 -15 -127 -29 -164 -79
-20 -26 -21 -40 -21 -346 0 -306 1 -320 21 -346 48 -65 63 -69 207 -64 304 11
378 7 592 -35 192 -38 208 -40 400 -40 191 0 209 2 400 39 331 64 470 64 800
0 191 -37 209 -39 400 -39 191 0 209 2 400 39 331 64 470 64 800 0 191 -37
209 -39 400 -39 191 0 209 2 400 39 330 64 469 64 800 0 191 -37 209 -39 400
-39 191 0 209 2 400 39 331 64 470 64 800 0 191 -37 209 -39 400 -39 191 0
209 2 400 39 328 63 475 63 800 0 256 -49 467 -57 655 -24 69 12 142 24 163
27 l37 6 0 -510 0 -509 -137 -24 c-115 -21 -169 -25 -328 -25 -178 0 -202 3
-390 39 -331 64 -470 64 -800 0 -191 -37 -209 -39 -400 -39 -191 0 -209 2
-400 39 -331 64 -470 64 -800 0 -191 -37 -209 -39 -400 -39 -191 0 -209 2
-400 39 -331 64 -470 64 -800 0 -191 -37 -209 -39 -400 -39 -191 0 -209 2
-400 39 -327 63 -473 63 -800 1 -117 -22 -241 -39 -322 -44 -110 -6 -137 -10
-160 -27 -43 -32 -64 -67 -70 -115 -2 -24 -11 -64 -18 -89 -8 -25 -21 -74 -30
-110 -27 -108 -45 -172 -62 -226 -20 -64 -12 -113 28 -159 45 -51 81 -58 275
-52 140 4 202 11 359 41 325 63 472 63 800 0 191 -37 209 -39 400 -39 191 0
209 2 400 39 331 64 470 64 800 0 191 -37 209 -39 400 -39 191 0 209 2 400 39
331 64 470 64 800 0 191 -37 209 -39 400 -39 191 0 209 2 400 39 331 64 470
64 800 0 191 -37 209 -39 400 -39 191 0 209 2 395 38 107 21 241 41 298 44
l102 6 0 8028 0 8029 -6080 0 -6081 0 3 -404z m5132 -4578 c7 -105 32 -660 41
-903 3 -88 8 -194 11 -236 l5 -76 -129 -7 c-70 -3 -188 -13 -261 -21 -73 -8
-137 -12 -142 -9 -5 3 -9 67 -9 142 0 75 -7 335 -15 577 -8 242 -15 474 -15
516 l0 76 103 8 c56 4 161 11 232 15 72 4 140 8 151 8 20 2 22 -4 28 -90z
m5870 65 c26 -89 196 -1181 196 -1262 0 -15 -21 -19 -166 -29 -91 -7 -217 -19
-281 -28 -64 -8 -123 -12 -130 -10 -7 3 -13 18 -13 33 0 69 -111 877 -158
1154 l-19 107 36 5 c38 6 324 35 401 40 115 9 129 8 134 -10z m816 -591 l0
-477 -127 -24 c-168 -30 -293 -39 -293 -20 0 8 -14 210 -30 449 -16 239 -30
450 -30 468 l0 32 93 1 c50 0 148 11 217 24 69 12 135 23 148 24 l22 1 0 -478z
m-829 -2530 c121 -79 296 -227 355 -298 l39 -48 0 -741 c0 -723 -7 -957 -41
-1510 -21 -347 -65 -888 -80 -975 l-6 -35 22 20 c40 36 188 240 254 349 35 58
85 153 112 211 27 57 54 107 61 110 7 2 35 7 63 11 l50 7 0 -389 0 -389 -127
-25 c-109 -21 -159 -25 -334 -26 l-207 -1 -88 -77 c-49 -42 -123 -101 -164
-130 -88 -64 -283 -187 -288 -182 -1 2 8 106 22 232 93 843 146 1839 146 2754
0 382 -12 926 -26 1158 l-6 114 68 -35 c38 -19 117 -66 175 -105z m828 -1029
c-1 -163 -1 -167 -15 -118 -8 28 -32 100 -53 162 l-38 112 26 4 c14 2 38 5 54
6 l27 1 -1 -167z m-1773 -1850 c-14 -243 -58 -778 -87 -1063 -16 -162 -32
-323 -36 -358 -5 -53 -10 -65 -28 -72 -49 -19 -284 -42 -484 -47 l-213 -6 6
39 c18 113 112 1273 104 1278 -2 1 -54 8 -116 15 -184 19 -336 77 -460 176
l-42 33 37 7 c71 14 238 20 343 13 58 -4 191 -23 295 -44 141 -27 227 -37 332
-41 l143 -6 71 59 c39 32 86 75 103 96 17 21 33 38 35 38 2 0 1 -53 -3 -117z"/>
<path d="M4852 17720 c-41 -5 -89 -11 -108 -15 l-34 -6 0 -574 0 -575 130 0
130 0 0 210 0 210 64 0 c62 0 65 -1 94 -37 42 -54 130 -193 187 -295 l49 -88
153 0 153 0 -26 53 c-54 106 -146 251 -251 396 -11 15 -4 22 55 61 115 77 161
177 149 325 -12 138 -93 246 -225 295 -119 45 -322 60 -520 40z m390 -238 c56
-25 80 -58 86 -121 11 -123 -77 -181 -278 -181 l-80 0 0 166 0 167 113 -5 c84
-4 125 -10 159 -26z"/>
<path d="M250 17130 l0 -580 415 0 415 0 0 110 0 110 -285 0 -285 0 0 140 0
140 235 0 235 0 0 110 0 110 -235 0 -235 0 0 110 0 110 265 0 265 0 0 110 0
110 -395 0 -395 0 0 -580z"/>
<path d="M1300 17130 l0 -580 130 0 130 0 2 378 3 377 102 -129 c106 -132 253
-345 362 -523 l63 -103 109 0 109 0 0 580 0 580 -130 0 -130 0 0 -342 0 -341
-73 104 c-147 210 -260 356 -384 495 l-74 84 -110 0 -109 0 0 -580z"/>
<path d="M2500 17600 l0 -110 175 0 175 0 0 -470 0 -470 130 0 130 0 0 470 0
470 175 0 175 0 0 110 0 110 -480 0 -480 0 0 -110z"/>
<path d="M3660 17130 l0 -580 415 0 415 0 0 110 0 110 -285 0 -285 0 0 140 0
140 235 0 235 0 0 110 0 110 -235 0 -235 0 0 110 0 110 265 0 265 0 0 110 0
110 -395 0 -395 0 0 -580z"/>
<path d="M310 16279 c-52 -3 -143 -14 -202 -24 l-108 -19 0 -8118 0 -8118
6945 0 6946 0 -3 469 c-3 456 -4 470 -24 497 -37 50 -68 66 -146 74 -40 4
-143 20 -228 35 -139 24 -172 27 -325 22 -145 -4 -199 -10 -365 -43 -187 -37
-203 -39 -395 -39 -191 0 -209 2 -400 39 -331 64 -470 64 -800 0 -191 -37
-209 -39 -400 -39 -191 0 -209 2 -400 39 -331 64 -470 64 -800 0 -191 -37
-209 -39 -400 -39 -191 0 -209 2 -400 39 -331 64 -470 64 -800 0 -191 -37
-209 -39 -400 -39 -191 0 -209 2 -400 39 -331 64 -470 64 -800 0 -191 -37
-209 -39 -400 -39 -191 0 -209 2 -400 39 -331 64 -470 64 -800 0 -191 -37
-209 -39 -400 -39 -191 0 -209 2 -400 39 -331 64 -470 64 -800 0 -191 -37
-209 -39 -400 -39 -191 0 -209 2 -400 39 -328 63 -475 63 -800 0 -158 -30
-219 -37 -360 -41 -180 -5 -152 -9 -553 62 -81 14 -185 25 -242 26 l-100 1 0
1318 0 1319 27 3 c66 7 242 -12 428 -48 191 -37 209 -39 400 -39 191 0 209 2
400 39 314 60 468 63 748 11 164 -30 200 -28 248 12 57 48 59 64 59 383 0 223
-3 298 -14 323 -17 43 -68 85 -109 91 -18 3 -99 17 -182 32 -284 50 -443 48
-750 -12 -158 -30 -219 -37 -360 -41 -180 -5 -152 -9 -553 62 -81 14 -185 25
-242 26 l-100 1 0 448 0 449 28 3 c65 7 241 -12 427 -48 191 -37 209 -39 400
-39 191 0 209 2 400 39 328 63 475 63 800 0 158 -30 219 -37 360 -41 181 -5
152 -9 555 62 198 35 370 35 572 0 81 -14 150 -25 153 -25 3 0 5 -202 5 -450
0 -247 -2 -450 -5 -450 -3 0 -72 11 -153 25 -108 19 -183 26 -283 26 -141 0
-180 -5 -409 -46 -138 -26 -166 -38 -204 -89 -20 -26 -21 -43 -24 -324 -2
-192 1 -310 7 -334 14 -44 69 -95 113 -103 29 -6 329 38 349 51 4 2 75 5 156
5 113 0 183 -6 295 -26 81 -14 150 -25 153 -25 3 0 5 -229 5 -510 0 -280 -2
-510 -5 -510 -3 0 -72 11 -153 25 -202 35 -374 35 -572 0 -403 -71 -374 -67
-555 -62 -141 4 -202 11 -360 41 -323 63 -478 63 -800 0 -256 -49 -465 -57
-659 -24 -72 12 -144 19 -162 15 -42 -7 -93 -50 -110 -92 -20 -47 -20 -539 0
-586 17 -43 68 -85 109 -91 18 -3 91 -15 162 -27 196 -32 406 -24 660 25 325
63 472 63 800 0 191 -37 209 -39 400 -39 191 0 209 2 400 39 331 64 470 64
800 0 191 -37 209 -39 400 -39 191 0 209 2 400 39 331 64 470 64 800 0 191
-37 209 -39 400 -39 191 0 209 2 400 39 331 64 470 64 800 0 191 -37 209 -39
400 -39 191 0 209 2 400 39 331 64 470 64 800 0 191 -37 209 -39 400 -39 191
0 209 2 395 38 232 45 349 55 425 37 43 -10 63 -11 94 -1 49 14 98 69 106 118
4 21 13 58 20 83 15 52 40 148 61 235 8 33 20 74 25 90 6 17 16 44 21 61 23
70 -25 159 -100 186 -26 9 -98 13 -247 12 -189 0 -223 -3 -345 -28 -244 -50
-312 -57 -495 -53 -143 4 -200 10 -360 41 -322 63 -475 63 -800 1 -104 -19
-223 -38 -262 -42 l-73 -6 0 1380 0 1380 73 6 c39 4 158 23 262 42 329 62 474
62 800 -1 191 -37 209 -39 400 -39 191 0 209 2 400 39 330 64 469 64 800 0
191 -37 209 -39 400 -39 192 0 208 2 395 39 166 33 220 39 365 43 155 5 184 3
325 -23 234 -42 266 -39 324 40 20 26 21 40 21 346 0 411 12 390 -255 442
-151 29 -182 32 -370 32 -209 1 -211 1 -460 -51 -41 -9 -103 -19 -137 -23 -58
-7 -67 -12 -130 -67 -133 -117 -366 -283 -380 -270 -3 4 -1 285 6 624 15 757
27 3172 16 3415 l-7 177 -95 41 c-112 49 -238 93 -348 121 -44 11 -87 22 -95
24 -13 4 -15 -87 -12 -792 l3 -796 30 -59 c62 -122 104 -287 124 -475 l6 -62
-133 0 c-133 0 -154 -3 -538 -72 -142 -25 -368 -25 -510 0 -394 71 -403 72
-550 71 -91 0 -183 -7 -247 -18 -57 -10 -103 -15 -103 -12 0 3 -7 64 -15 135
-20 178 -29 471 -20 638 7 134 8 139 32 150 l24 11 -3 157 c-3 172 -7 185 -72
233 -25 19 -41 21 -206 21 -196 0 -205 -2 -254 -69 -21 -27 -21 -32 -20 -1059
1 -568 7 -1319 14 -1670 6 -351 9 -641 6 -644 -9 -9 -140 95 -247 195 l-95 90
-126 21 c-87 15 -169 22 -265 22 -138 0 -155 -3 -543 -72 -142 -25 -368 -25
-510 0 -387 69 -405 72 -541 72 -75 0 -156 -3 -180 -7 l-44 -7 33 39 c140 168
245 317 322 457 l43 79 -12 296 c-19 519 -32 1273 -29 1727 l3 440 57 -111 57
-112 118 -22 c230 -43 290 -50 430 -50 125 0 291 19 397 46 l24 6 -5 -279 c-5
-249 3 -488 23 -679 l6 -60 -123 -24 c-165 -32 -405 -39 -549 -16 -55 9 -104
16 -109 16 -4 0 -11 -57 -15 -126 -12 -238 -63 -496 -145 -736 l-39 -117 51
-10 c29 -6 104 -21 167 -33 97 -19 147 -23 315 -23 189 0 211 2 395 37 107 20
216 40 242 44 l47 6 17 -43 c55 -138 266 -520 281 -506 2 3 -2 216 -9 473 -16
619 -16 2992 0 3602 l13 453 66 107 c121 197 278 403 415 546 l77 81 -5 -65
c-5 -76 -23 -1144 -26 -1592 -2 -295 -2 -308 18 -335 49 -66 58 -68 254 -68
196 0 205 2 254 69 20 26 21 46 28 359 9 403 29 2089 26 2093 -5 4 -191 -137
-303 -230 l-107 -88 -146 5 c-112 4 -193 14 -337 41 -324 63 -478 63 -800 0
-158 -30 -218 -37 -360 -41 -180 -5 -152 -9 -553 62 -80 14 -185 25 -240 26
l-98 1 -31 476 c-18 262 -30 478 -29 480 2 2 60 3 128 3 87 -1 167 -8 269 -26
402 -71 373 -67 554 -62 142 4 202 11 360 41 105 21 235 39 290 42 142 7 161
11 200 45 34 30 40 44 66 154 6 28 22 86 35 130 12 44 30 109 40 145 9 36 22
88 30 115 7 28 20 79 29 115 9 36 30 109 47 162 42 130 32 184 -43 240 -38 29
-154 41 -339 35 -139 -4 -196 -11 -360 -43 -187 -37 -203 -39 -395 -39 -191 0
-209 2 -400 39 -331 64 -470 64 -800 0 -191 -37 -209 -39 -400 -39 -191 0
-209 2 -400 39 -331 64 -470 64 -800 0 -191 -37 -209 -39 -400 -39 -191 0
-209 2 -400 39 -328 63 -475 63 -800 0 -256 -49 -465 -57 -659 -24 -144 24
-181 21 -227 -17 -59 -50 -59 -51 -59 -533 0 -350 3 -447 14 -473 17 -43 68
-85 109 -91 18 -3 91 -15 162 -27 196 -32 406 -24 660 25 323 63 478 63 800 0
158 -30 218 -37 360 -41 181 -5 152 -9 555 62 114 20 176 25 290 25 80 -1 165
-5 190 -9 l45 -7 -60 -13 c-144 -29 -436 -105 -565 -147 -118 -38 -141 -48
-145 -67 -20 -95 -116 -1028 -151 -1472 l-7 -90 -88 -70 c-49 -38 -121 -102
-160 -141 l-72 -72 47 -7 c25 -4 119 -5 209 -2 131 4 198 12 352 41 326 63
472 63 800 0 191 -37 209 -39 400 -39 191 0 209 2 400 39 328 63 475 63 800 0
158 -30 219 -37 360 -41 181 -5 152 -9 555 62 106 19 180 26 278 26 74 0 136
-2 139 -5 2 -2 -18 -49 -46 -105 -80 -158 -168 -372 -227 -548 -30 -89 -54
-169 -54 -177 0 -9 -4 -16 -9 -16 -4 0 -93 -16 -197 -36 -156 -30 -219 -37
-359 -41 -181 -5 -152 -9 -555 62 -201 35 -371 35 -575 -1 -83 -14 -195 -34
-250 -44 -88 -15 -103 -16 -128 -3 -16 8 -31 13 -33 10 -2 -2 -9 -204 -15
-448 -18 -704 -5 -1793 31 -2579 16 -350 56 -1022 65 -1071 3 -23 -6 -31 -93
-86 -114 -71 -270 -150 -391 -199 -80 -33 -321 -108 -326 -102 -8 9 -77 962
-90 1233 -3 72 -8 149 -11 172 l-5 42 -67 -46 c-87 -59 -167 -97 -267 -124
-68 -19 -107 -23 -263 -23 l-184 -1 6 -85 c25 -345 60 -777 80 -986 13 -137
23 -251 21 -252 -2 -2 -75 1 -162 7 -166 12 -362 39 -480 66 l-71 16 -6 47
c-48 364 -159 1797 -144 1867 1 10 20 -23 40 -71 63 -149 183 -317 283 -400
39 -32 59 -40 123 -50 118 -20 358 -17 482 5 380 68 406 71 532 72 l127 0 51
57 c121 135 217 312 264 492 31 114 56 273 56 352 l0 57 -52 10 c-297 61 -484
67 -718 26 -403 -71 -374 -67 -555 -62 -142 4 -201 11 -360 41 -104 21 -237
40 -293 43 -62 4 -105 10 -107 17 -2 6 -6 41 -10 77 l-6 65 -43 12 c-55 14
-103 68 -112 122 l-7 40 -122 0 -123 0 -7 -31 c-10 -45 -60 -97 -107 -111
l-41 -12 6 -271 c14 -554 68 -1357 128 -1904 11 -101 18 -185 16 -187 -7 -8
-184 125 -280 210 l-96 86 -73 0 c-40 0 -120 9 -178 19 -349 62 -408 71 -500
72 l-100 1 0 388 0 389 27 3 c35 4 237 -9 261 -16 10 -4 43 -61 82 -143 74
-156 181 -344 187 -326 2 6 -5 123 -16 260 -58 706 -76 1156 -75 1958 0 790
18 1259 74 1936 21 254 15 237 128 419 134 217 282 409 456 588 66 67 121 121
122 119 2 -2 -9 -125 -26 -273 -85 -775 -149 -1861 -150 -2549 l0 -151 44 -12
c52 -14 102 -66 112 -117 l6 -35 113 0 113 0 12 35 c15 46 71 93 120 101 39 6
39 7 42 57 l3 51 55 22 55 22 7 238 c35 1215 90 2022 199 2896 16 131 29 244
29 252 0 18 -20 7 -175 -92 -118 -76 -206 -139 -332 -240 l-91 -73 -159 -31
c-126 -24 -193 -32 -328 -35 -180 -5 -152 -9 -553 62 -81 14 -185 25 -242 26
l-100 1 0 1603 0 1604 28 3 c65 7 241 -12 427 -48 191 -37 209 -39 400 -39
191 0 209 2 400 39 331 64 470 64 800 0 191 -37 209 -39 400 -39 191 0 209 2
400 39 331 64 470 64 800 0 191 -37 209 -39 400 -39 191 0 209 2 400 39 331
64 470 64 800 0 191 -37 209 -39 400 -39 191 0 209 2 400 39 330 64 469 64
800 0 191 -37 209 -39 400 -39 191 0 209 2 400 39 331 64 470 64 800 0 191
-37 209 -39 400 -39 191 0 209 2 400 39 331 64 470 64 800 0 191 -37 209 -39
400 -39 191 0 209 2 400 39 331 64 470 64 800 0 191 -37 209 -39 400 -39 191
0 209 2 400 39 331 64 470 64 800 0 191 -37 209 -39 400 -39 191 0 209 2 400
39 330 64 469 64 800 0 191 -37 209 -39 400 -39 191 0 209 2 400 39 327 63
472 63 800 1 199 -38 347 -53 409 -41 55 10 103 58 121 121 13 44 15 114 13
423 -3 356 -4 372 -24 398 -44 60 -65 67 -202 75 -73 5 -207 23 -317 44 -328
62 -473 62 -800 -1 -191 -37 -209 -39 -400 -39 -191 0 -209 2 -400 39 -331 64
-470 64 -800 0 -191 -37 -209 -39 -400 -39 -191 0 -209 2 -400 39 -331 64
-470 64 -800 0 -191 -37 -209 -39 -400 -39 -191 0 -209 2 -400 39 -331 64
-470 64 -800 0 -191 -37 -209 -39 -400 -39 -191 0 -209 2 -400 39 -331 64
-470 64 -800 0 -191 -37 -209 -39 -400 -39 -191 0 -209 2 -400 39 -331 64
-470 64 -800 0 -191 -37 -209 -39 -400 -39 -191 0 -209 2 -400 39 -331 64
-470 64 -800 0 -191 -37 -209 -39 -400 -39 -191 0 -209 2 -400 39 -331 64
-470 64 -800 0 -191 -37 -209 -39 -400 -39 -191 0 -209 2 -400 39 -331 64
-470 64 -800 0 -191 -37 -209 -39 -400 -39 -191 0 -209 2 -400 39 -331 64
-470 64 -800 0 -191 -37 -209 -39 -400 -39 -191 0 -209 2 -400 39 -220 42
-350 54 -495 45z m4406 -3221 c-13 -90 -76 -725 -96 -968 -12 -140 -23 -269
-26 -286 l-4 -30 -103 -12 c-225 -28 -535 -91 -724 -148 -20 -5 -23 -3 -23 20
0 77 79 908 117 1228 l16 136 66 12 c177 31 488 68 691 83 25 2 56 4 69 5 22
2 23 0 17 -40z m-3986 -2088 c69 -12 128 -26 133 -29 4 -4 -19 -63 -52 -132
-76 -161 -160 -372 -207 -527 l-38 -122 -108 1 -108 1 0 418 0 419 28 3 c52 6
228 -10 352 -32z m-347 -2117 c-4 -188 -2 -356 7 -483 6 -107 13 -206 13 -220
2 -20 -3 -26 -25 -28 l-28 -3 0 510 c0 502 0 511 20 511 19 0 19 -6 13 -287z
m7763 -1208 c64 -194 159 -368 268 -491 l45 -51 78 -6 c43 -4 166 -23 273 -44
185 -36 205 -38 395 -38 178 0 216 3 345 28 80 15 158 33 173 39 35 14 124
111 189 208 l51 75 -7 -775 c-3 -426 -9 -814 -13 -862 l-6 -87 -86 -20 c-129
-30 -305 -59 -411 -67 l-93 -7 6 668 7 667 -33 -6 c-17 -3 -88 -8 -157 -12
-150 -7 -285 10 -408 54 l-82 29 6 -690 7 -690 -64 7 c-101 11 -295 52 -414
88 -105 32 -109 34 -116 65 -3 17 -9 319 -13 670 -3 351 -8 841 -11 1088 l-5
450 25 -105 c14 -57 37 -141 51 -185z m-766 -3625 l0 -1500 -1500 0 -1500 0 0
1500 0 1500 1500 0 1500 0 0 -1500z m-2183 -1618 c7 -4 10 -17 7 -28 -4 -16
-11 -20 -30 -16 -29 5 -54 -13 -54 -39 0 -15 8 -19 40 -19 36 0 40 -2 40 -25
0 -22 -4 -25 -40 -25 l-40 0 0 -85 0 -85 -30 0 -30 0 0 130 c0 136 8 171 44
188 25 13 76 15 93 4z m1243 -132 c0 -117 2 -140 16 -148 22 -12 9 -52 -17
-52 -10 0 -28 9 -39 20 -18 18 -20 33 -20 164 0 129 2 145 18 149 42 11 42 12
42 -133z m-2246 100 c21 -8 24 -13 17 -32 -7 -19 -16 -23 -52 -23 -57 0 -66
-27 -18 -53 58 -30 89 -67 89 -104 0 -63 -51 -95 -136 -85 -54 6 -65 15 -58
44 5 19 12 22 63 20 51 -2 56 0 59 20 3 18 -7 27 -47 47 -79 40 -94 94 -42
147 32 31 76 38 125 19z m1840 0 c21 -8 24 -13 17 -32 -7 -19 -16 -23 -52 -23
-57 0 -66 -27 -18 -53 58 -30 89 -67 89 -104 0 -63 -51 -95 -136 -85 -54 6
-65 15 -58 44 5 19 12 22 63 20 51 -2 56 0 59 20 3 18 -7 27 -47 47 -79 40
-94 94 -42 147 32 31 76 38 125 19z m786 -35 c0 -34 1 -35 40 -35 36 0 40 -2
40 -25 0 -22 -4 -25 -40 -25 l-40 0 0 -54 c0 -60 15 -81 54 -74 19 4 26 0 30
-16 7 -26 -9 -36 -57 -36 -27 0 -45 7 -62 25 -24 23 -25 30 -25 144 0 105 2
120 18 124 37 10 42 7 42 -28z m-2383 -33 c7 -4 10 -17 7 -28 -4 -16 -12 -19
-43 -16 -31 3 -42 -1 -55 -19 -40 -58 -7 -125 59 -117 28 3 36 0 41 -15 9 -28
-13 -39 -69 -34 -62 5 -96 37 -104 95 -7 54 12 99 51 123 32 19 91 25 113 11z
m188 -17 c23 -22 25 -32 25 -113 0 -85 -1 -90 -22 -96 -48 -12 -105 -6 -132
15 -57 45 -18 129 60 129 19 0 34 4 34 9 0 18 -31 33 -60 29 -23 -4 -31 0 -36
15 -8 26 11 37 64 37 32 0 49 -6 67 -25z m228 14 c36 -16 47 -50 47 -139 l0
-80 -30 0 -30 0 0 78 c0 83 -9 102 -47 102 -22 0 -23 -3 -23 -90 l0 -90 -30 0
-30 0 0 109 c0 106 1 110 23 114 44 9 97 7 120 -4z m531 1 c42 -16 68 -67 63
-124 -4 -41 -10 -55 -37 -79 -29 -26 -39 -29 -78 -24 -61 7 -93 40 -99 104 -8
96 65 156 151 123z m250 2 c3 -5 3 -17 0 -28 -4 -16 -12 -19 -40 -16 l-34 4 0
-91 0 -91 -30 0 -30 0 0 109 c0 106 1 110 23 114 40 8 106 7 111 -1z m630 -2
c42 -16 68 -67 63 -124 -4 -41 -10 -55 -37 -79 -29 -26 -39 -29 -78 -24 -61 7
-93 40 -99 104 -8 96 65 156 151 123z m950 0 c42 -16 68 -67 63 -124 -4 -41
-10 -55 -37 -79 -29 -26 -39 -29 -78 -24 -61 7 -93 40 -99 104 -8 96 65 156
151 123z m259 -1 c36 -16 47 -50 47 -139 l0 -80 -30 0 -30 0 0 78 c0 83 -9
102 -47 102 -22 0 -23 -3 -23 -90 l0 -90 -30 0 -30 0 0 109 c0 106 1 110 23
114 44 9 97 7 120 -4z m-903 -77 c0 -83 9 -102 47 -102 22 0 23 3 23 90 l0 90
30 0 30 0 0 -109 0 -108 -31 -7 c-76 -15 -129 0 -148 41 -6 13 -11 60 -11 103
l0 80 30 0 30 0 0 -78z m70 -1727 l0 -255 -25 0 -25 0 0 255 0 255 25 0 25 0
0 -255z m3220 0 l0 -255 -25 0 -25 0 0 255 0 255 25 0 25 0 0 -255z m-7370
182 l0 -64 30 5 c60 9 100 -46 100 -139 0 -113 -46 -161 -135 -145 l-35 7 0
193 c0 106 3 196 7 199 3 4 12 7 20 7 9 0 13 -17 13 -63z m3650 -1 c0 -62 0
-63 25 -58 79 15 105 -29 105 -178 0 -93 -1 -100 -20 -100 -19 0 -20 7 -20
104 0 116 -9 136 -61 136 l-29 0 0 -120 c0 -113 -1 -120 -20 -120 -19 0 -20 7
-20 193 0 107 3 197 7 200 3 4 12 7 20 7 9 0 13 -17 13 -64z m2370 0 c0 -62 0
-63 25 -58 79 15 105 -29 105 -178 0 -93 -1 -100 -20 -100 -19 0 -20 7 -20
104 0 116 -9 136 -61 136 l-29 0 0 -120 c0 -113 -1 -120 -20 -120 -19 0 -20 7
-20 193 0 107 3 197 7 200 3 4 12 7 20 7 9 0 13 -17 13 -64z m2850 0 c0 -62 0
-63 25 -58 79 15 105 -29 105 -178 0 -93 -1 -100 -20 -100 -19 0 -20 7 -20
104 0 116 -9 136 -61 136 l-29 0 0 -120 c0 -113 -1 -120 -20 -120 -19 0 -20 7
-20 193 0 107 3 197 7 200 3 4 12 7 20 7 9 0 13 -17 13 -64z m2350 -136 l0
-199 -34 -7 c-49 -9 -94 4 -112 32 -21 31 -29 129 -15 182 14 50 48 76 91 70
l30 -5 0 57 c0 59 4 70 27 70 10 0 13 -40 13 -200z m-5735 145 c32 -31 33 -87
2 -136 -70 -115 -87 -145 -87 -156 0 -9 19 -13 60 -13 53 0 60 -2 60 -20 0
-18 -7 -20 -80 -20 l-80 0 0 28 c0 34 30 100 71 157 59 82 40 165 -30 138 -24
-9 -33 -8 -41 2 -8 10 -5 17 12 29 34 24 85 20 113 -9z m960 0 c32 -31 33 -87
2 -136 -70 -115 -87 -145 -87 -156 0 -9 19 -13 60 -13 53 0 60 -2 60 -20 0
-18 -7 -20 -80 -20 l-80 0 0 28 c0 34 30 100 71 157 59 82 40 165 -30 138 -24
-9 -33 -8 -41 2 -8 10 -5 17 12 29 34 24 85 20 113 -9z m229 -8 c19 -25 21
-42 21 -157 0 -115 -2 -131 -21 -157 -29 -38 -79 -39 -107 -2 -22 30 -35 171
-23 252 14 94 83 127 130 64z m-8664 5 c0 -11 -12 -22 -34 -30 -40 -15 -54
-29 -65 -69 -8 -28 -8 -28 28 -25 28 3 41 -2 60 -22 49 -53 34 -187 -23 -202
-39 -9 -74 3 -93 33 -27 42 -26 205 3 253 36 61 124 105 124 62z m220 0 c0
-11 -12 -22 -34 -30 -40 -15 -54 -29 -65 -69 -8 -28 -8 -28 28 -25 28 3 41 -2
60 -22 49 -53 34 -187 -23 -202 -39 -9 -74 3 -93 33 -27 42 -26 205 3 253 36
61 124 105 124 62z m220 0 c0 -11 -12 -22 -34 -30 -40 -15 -54 -29 -65 -69 -8
-28 -8 -28 28 -25 28 3 41 -2 60 -22 49 -53 34 -187 -23 -202 -39 -9 -74 3
-93 33 -27 42 -26 205 3 253 36 61 124 105 124 62z m288 -85 c18 -56 32 -108
32 -115 0 -26 18 -10 24 21 4 17 18 69 32 115 23 78 26 82 53 82 26 0 29 -4
34 -42 4 -24 9 -105 13 -180 l6 -138 -26 0 c-26 0 -26 1 -27 78 -1 42 -4 104
-8 137 l-6 60 -12 -40 c-6 -22 -21 -73 -33 -112 -31 -109 -47 -102 -90 40
l-35 112 -7 -45 c-3 -25 -7 -87 -7 -137 l-1 -93 -26 0 -27 0 7 143 c10 206 12
217 45 217 27 0 29 -5 59 -103z m1809 10 l36 -89 29 69 c16 37 33 78 38 91 6
12 18 22 30 22 19 0 19 -1 -4 -62 -13 -35 -33 -85 -45 -111 -15 -34 -21 -69
-21 -118 0 -67 -1 -69 -25 -69 -24 0 -25 2 -25 69 0 50 -6 83 -24 122 -13 30
-33 80 -45 112 l-21 58 21 -3 c16 -2 29 -23 56 -91z m1453 73 c0 -18 -7 -20
-55 -20 l-55 0 0 -55 0 -55 50 0 c43 0 50 -3 50 -20 0 -17 -7 -20 -50 -20
l-50 0 0 -85 c0 -84 0 -85 -25 -85 l-25 0 0 180 0 180 80 0 c73 0 80 -2 80
-20z m2460 -130 c0 -160 -7 -191 -47 -209 -52 -24 -125 -6 -116 28 4 16 9 19
23 11 30 -16 68 -12 80 9 5 11 10 84 10 165 l0 146 25 0 25 0 0 -150z m1260
131 c0 -16 -8 -20 -37 -23 -37 -3 -38 -4 -41 -49 -3 -43 -1 -47 28 -59 55 -23
78 -107 45 -170 -18 -35 -43 -50 -82 -50 -37 0 -55 13 -48 33 5 11 15 14 39
10 27 -4 36 -1 50 18 21 31 20 82 -1 102 -10 8 -31 19 -47 23 -28 7 -28 8 -22
58 3 28 6 68 6 89 l0 37 55 0 c48 0 55 -3 55 -19z m1150 -161 c0 -173 -1 -180
-20 -180 -19 0 -20 7 -20 140 0 128 -6 160 -25 130 -9 -15 -22 -12 -29 5 -6
16 59 84 82 85 9 0 12 -43 12 -180z m250 161 c0 -16 -8 -20 -37 -23 -37 -3
-38 -4 -41 -49 -3 -43 -1 -47 28 -59 55 -23 78 -107 45 -170 -18 -35 -43 -50
-82 -50 -37 0 -55 13 -48 33 5 11 15 14 39 10 27 -4 36 -1 50 18 21 31 20 82
-1 102 -10 8 -31 19 -47 23 -28 7 -28 8 -22 58 3 28 6 68 6 89 l0 37 55 0 c48
0 55 -3 55 -19z m507 -33 c14 -26 40 -83 59 -125 l34 -78 0 128 0 127 25 0 25
0 0 -180 0 -180 -23 0 c-18 0 -27 10 -41 48 -9 26 -37 88 -61 137 l-43 90 -1
-137 -1 -138 -25 0 -25 0 0 181 0 180 26 -3 c20 -2 33 -15 51 -50z m692 41
c62 -22 81 -113 35 -168 -25 -30 -25 -33 -10 -56 9 -13 25 -47 36 -75 l20 -50
-23 0 c-18 0 -27 13 -50 70 -26 64 -31 70 -58 70 l-29 0 0 -70 c0 -68 -1 -70
-25 -70 l-25 0 0 174 c0 130 3 176 13 179 22 10 83 7 116 -4z m1340 0 c62 -22
81 -113 35 -168 -25 -30 -25 -33 -10 -56 9 -13 25 -47 36 -75 l20 -50 -23 0
c-18 0 -27 13 -50 70 -26 64 -31 70 -58 70 l-29 0 0 -70 c0 -68 -1 -70 -25
-70 l-25 0 0 174 c0 130 3 176 13 179 22 10 83 7 116 -4z m-8289 -39 c0 -39 1
-40 35 -40 28 0 35 -4 35 -20 0 -16 -7 -20 -35 -20 l-35 0 0 -89 c0 -95 11
-118 49 -108 23 6 38 -22 19 -35 -27 -16 -66 -8 -87 18 -19 24 -21 40 -21 174
0 81 3 150 7 153 19 19 33 5 33 -33z m4480 0 c0 -39 1 -40 35 -40 28 0 35 -4
35 -20 0 -16 -7 -20 -35 -20 l-35 0 0 -89 c0 -95 11 -118 49 -108 23 6 38 -22
19 -35 -27 -16 -66 -8 -87 18 -19 24 -21 40 -21 174 0 81 3 150 7 153 19 19
33 5 33 -33z m3270 0 c0 -39 1 -40 35 -40 28 0 35 -4 35 -20 0 -16 -7 -20 -35
-20 l-35 0 0 -89 c0 -95 11 -118 49 -108 23 6 38 -22 19 -35 -27 -16 -66 -8
-87 18 -19 24 -21 40 -21 174 0 81 3 150 7 153 19 19 33 5 33 -33z m-9989 -49
c22 -18 24 -27 27 -139 l4 -121 -36 -7 c-82 -15 -136 18 -136 82 0 48 28 75
83 81 41 5 47 9 47 29 0 35 -28 56 -66 52 -23 -3 -35 1 -39 11 -13 34 77 44
116 12z m428 -5 c15 -16 24 -41 28 -80 l6 -56 -68 0 -67 0 6 -32 c8 -43 33
-61 74 -54 24 4 35 1 39 -11 19 -49 -104 -41 -136 9 -16 26 -26 116 -17 163
15 77 89 110 135 61z m1282 5 c22 -18 24 -27 27 -139 l4 -121 -36 -7 c-82 -15
-136 18 -136 82 0 48 28 75 83 81 41 5 47 9 47 29 0 35 -28 56 -66 52 -23 -3
-35 1 -39 11 -13 34 77 44 116 12z m239 9 c28 -15 40 -65 40 -171 0 -92 -1
-99 -20 -99 -19 0 -20 7 -20 104 0 116 -9 136 -61 136 l-29 0 0 -120 c0 -113
-1 -120 -20 -120 -19 0 -20 7 -20 134 0 132 0 135 23 139 42 8 88 7 107 -3z
m555 -16 c41 -44 46 -175 10 -231 -28 -43 -102 -43 -130 0 -20 31 -29 104 -20
162 13 88 88 125 140 69z m714 2 c15 -16 24 -41 28 -80 l6 -56 -68 0 -67 0 6
-32 c8 -43 33 -61 74 -54 24 4 35 1 39 -11 19 -49 -104 -41 -136 9 -16 26 -26
116 -17 163 15 77 89 110 135 61z m236 14 c6 0 22 2 37 6 81 19 108 -23 108
-171 0 -98 -1 -105 -20 -105 -19 0 -20 7 -20 101 0 107 -9 139 -40 139 -44 0
-45 -5 -42 -125 4 -111 3 -115 -17 -115 -20 0 -21 5 -21 101 0 116 -8 139 -50
139 l-30 0 0 -120 c0 -113 -1 -120 -20 -120 -19 0 -20 7 -20 134 0 152 -2 148
80 141 25 -3 50 -5 55 -5z m485 0 c28 -15 40 -65 40 -171 0 -92 -1 -99 -20
-99 -19 0 -20 7 -20 104 0 116 -9 136 -61 136 l-29 0 0 -120 c0 -113 -1 -120
-20 -120 -19 0 -20 7 -20 134 0 132 0 135 23 139 42 8 88 7 107 -3z m255 -16
c41 -44 46 -175 10 -231 -28 -43 -102 -43 -130 0 -20 31 -29 104 -20 162 13
88 88 125 140 69z m213 18 c7 -5 10 -16 6 -25 -4 -12 -14 -15 -35 -10 -60 12
-81 -46 -27 -75 81 -43 101 -100 52 -149 -22 -22 -32 -25 -75 -21 -57 6 -62 9
-53 32 5 12 14 15 45 10 67 -11 95 39 42 73 -85 52 -105 102 -58 148 24 25 76
33 103 17z m1382 -2 c28 -15 40 -65 40 -171 0 -92 -1 -99 -20 -99 -19 0 -20 7
-20 104 0 116 -9 136 -61 136 l-29 0 0 -120 c0 -113 -1 -120 -20 -120 -19 0
-20 7 -20 134 0 132 0 135 23 139 42 8 88 7 107 -3z m249 -14 c15 -16 24 -41
28 -80 l6 -56 -68 0 -67 0 6 -32 c8 -43 33 -61 74 -54 24 4 35 1 39 -11 19
-49 -104 -41 -136 9 -16 26 -26 116 -17 163 15 77 89 110 135 61z m2816 -2
c41 -44 46 -175 10 -231 -28 -43 -102 -43 -130 0 -20 31 -29 104 -20 162 13
88 88 125 140 69z m743 20 c22 -6 22 -9 22 -161 l0 -155 -29 -29 c-21 -20 -39
-29 -63 -29 -41 0 -63 13 -55 33 4 12 15 14 40 10 39 -6 67 15 67 51 0 19 -4
22 -30 18 -66 -9 -107 56 -97 153 3 29 11 62 18 73 23 36 72 50 127 36z m630
-2 c7 -5 10 -16 6 -25 -4 -12 -14 -15 -35 -10 -60 12 -81 -46 -27 -75 81 -43
101 -100 52 -149 -22 -22 -32 -25 -75 -21 -57 6 -62 9 -53 32 5 12 14 15 45
10 67 -11 95 39 42 73 -85 52 -105 102 -58 148 24 25 76 33 103 17z m561 -16
c15 -16 24 -41 28 -80 l6 -56 -68 0 -67 0 6 -32 c8 -43 33 -61 74 -54 24 4 35
1 39 -11 19 -49 -104 -41 -136 9 -16 26 -26 116 -17 163 15 77 89 110 135 61z
m209 16 c7 -5 10 -16 6 -25 -4 -12 -14 -15 -35 -10 -60 12 -81 -46 -27 -75 81
-43 101 -100 52 -149 -22 -22 -32 -25 -75 -21 -57 6 -62 9 -53 32 5 12 14 15
45 10 67 -11 95 39 42 73 -85 52 -105 102 -58 148 24 25 76 33 103 17z m201
-16 c15 -16 24 -41 28 -80 l6 -56 -68 0 -67 0 6 -32 c8 -43 33 -61 74 -54 24
4 35 1 39 -11 19 -49 -104 -41 -136 9 -16 26 -26 116 -17 163 15 77 89 110
135 61z m630 0 c15 -16 24 -41 28 -80 l6 -56 -68 0 -67 0 6 -32 c8 -43 33 -61
74 -54 24 4 35 1 39 -11 19 -49 -104 -41 -136 9 -16 26 -26 116 -17 163 15 77
89 110 135 61z m-11589 -2 c0 -8 -22 -57 -50 -108 -27 -51 -50 -96 -50 -99 0
-4 23 -7 50 -7 43 0 50 -3 50 -20 0 -18 -7 -20 -75 -20 -70 0 -75 1 -75 22 0
12 22 63 50 115 l50 93 -45 0 c-38 0 -45 3 -45 20 0 18 7 20 70 20 57 0 70 -3
70 -16z m846 -11 c12 -54 46 -183 49 -183 2 0 17 55 45 168 8 31 16 42 30 42
11 0 20 -3 20 -6 0 -3 -14 -60 -30 -126 -47 -189 -79 -243 -137 -236 -37 4
-38 32 0 36 34 4 63 52 48 80 -9 16 -50 158 -65 225 -5 22 -3 27 14 27 13 0
22 -9 26 -27z m4364 -77 c0 -116 9 -136 61 -136 l29 0 0 120 c0 113 1 120 20
120 19 0 20 -7 20 -135 l0 -134 -35 -7 c-19 -3 -51 -3 -70 0 -52 10 -65 43
-65 171 0 98 1 105 20 105 19 0 20 -7 20 -104z m6056 77 c3 -16 16 -66 28
-113 l22 -85 23 95 c13 52 25 103 28 113 2 9 13 17 24 17 15 0 19 -5 15 -17
-2 -10 -19 -71 -36 -135 -27 -98 -35 -118 -51 -118 -22 0 -29 16 -63 135 -39
135 -39 135 -16 135 13 0 22 -9 26 -27z"/>
<path d="M4560 5025 l0 -315 315 0 315 0 0 315 0 315 -315 0 -315 0 0 -315z
m540 0 l0 -225 -225 0 -225 0 0 225 0 225 225 0 225 0 0 -225z"/>
<path d="M4740 5025 l0 -135 135 0 135 0 0 135 0 135 -135 0 -135 0 0 -135z"/>
<path d="M5460 5295 l0 -45 -45 0 -45 0 0 -45 0 -45 -45 0 -45 0 0 -90 0 -90
90 0 90 0 0 -45 0 -45 45 0 45 0 0 -45 0 -45 -45 0 -45 0 0 -45 0 -45 -45 0
-45 0 0 45 0 45 -45 0 -45 0 0 -45 0 -45 45 0 45 0 0 -45 0 -45 180 0 180 0 0
90 0 90 -45 0 -45 0 0 45 0 45 135 0 135 0 0 45 0 45 45 0 45 0 0 -135 0 -135
-45 0 -45 0 0 45 0 45 -45 0 -45 0 0 -45 0 -45 45 0 45 0 0 -45 0 -45 -45 0
-45 0 0 -45 0 -45 45 0 45 0 0 45 0 45 45 0 45 0 0 45 0 45 45 0 45 0 0 45 0
45 45 0 45 0 0 -45 0 -45 45 0 45 0 0 90 0 90 45 0 45 0 0 -90 0 -90 45 0 45
0 0 270 0 270 -45 0 -45 0 0 45 0 45 -90 0 -90 0 0 -45 0 -45 -45 0 -45 0 0
-45 0 -45 45 0 45 0 0 -45 0 -45 -135 0 -135 0 0 45 0 45 45 0 45 0 0 90 0 90
-45 0 -45 0 0 -90 0 -90 -45 0 -45 0 0 45 0 45 -45 0 -45 0 0 45 0 45 -45 0
-45 0 0 -45 0 -45 -45 0 -45 0 0 45 0 45 -45 0 -45 0 0 -45z m900 -135 l0 -90
-45 0 -45 0 0 -45 0 -45 -45 0 -45 0 0 45 0 45 45 0 45 0 0 45 0 45 -45 0 -45
0 0 45 0 45 90 0 90 0 0 -90z m-720 -45 l0 -45 45 0 45 0 0 -45 0 -45 -45 0
-45 0 0 -45 0 -45 -45 0 -45 0 0 45 0 45 45 0 45 0 0 45 0 45 -90 0 -90 0 0
45 0 45 90 0 90 0 0 -45z"/>
<path d="M6540 5025 l0 -315 315 0 315 0 0 315 0 315 -315 0 -315 0 0 -315z
m540 0 l0 -225 -225 0 -225 0 0 225 0 225 225 0 225 0 0 -225z"/>
<path d="M6720 5025 l0 -135 135 0 135 0 0 135 0 135 -135 0 -135 0 0 -135z"/>
<path d="M4830 4575 l0 -45 -45 0 -45 0 0 -180 0 -180 45 0 45 0 0 -45 0 -45
45 0 45 0 0 -45 0 -45 45 0 45 0 0 45 0 45 45 0 45 0 0 -45 0 -45 45 0 45 0 0
45 0 45 45 0 45 0 0 45 0 45 -45 0 -45 0 0 45 0 45 90 0 90 0 0 -90 0 -90 45
0 45 0 0 -45 0 -45 -45 0 -45 0 0 -90 0 -90 -45 0 -45 0 0 45 0 45 -90 0 -90
0 0 -45 0 -45 -45 0 -45 0 0 -45 0 -45 -45 0 -45 0 0 -45 0 -45 -45 0 -45 0 0
90 0 90 45 0 45 0 0 45 0 45 -45 0 -45 0 0 45 0 45 -45 0 -45 0 0 45 0 45 -45
0 -45 0 0 90 0 90 -45 0 -45 0 0 -90 0 -90 45 0 45 0 0 -45 0 -45 -45 0 -45 0
0 -45 0 -45 45 0 45 0 0 -45 0 -45 -45 0 -45 0 0 -180 0 -180 135 0 135 0 0
45 0 45 45 0 45 0 0 -45 0 -45 45 0 45 0 0 90 0 90 90 0 90 0 0 -45 0 -45 -45
0 -45 0 0 -45 0 -45 90 0 90 0 0 -90 0 -90 45 0 45 0 0 135 0 135 90 0 90 0 0
-45 0 -45 -45 0 -45 0 0 -45 0 -45 45 0 45 0 0 -45 0 -45 -45 0 -45 0 0 -45 0
-45 -90 0 -90 0 0 -90 0 -90 45 0 45 0 0 -45 0 -45 45 0 45 0 0 -45 0 -45 -45
0 -45 0 0 -45 0 -45 90 0 90 0 0 90 0 90 45 0 45 0 0 -90 0 -90 135 0 135 0 0
45 0 45 -90 0 -90 0 0 45 0 45 45 0 45 0 0 45 0 45 45 0 45 0 0 45 0 45 -45 0
-45 0 0 45 0 45 -45 0 -45 0 0 45 0 45 135 0 135 0 0 -90 0 -90 45 0 45 0 0
90 0 90 -45 0 -45 0 0 45 0 45 90 0 90 0 0 135 0 135 45 0 45 0 0 45 0 45 -90
0 -90 0 0 45 0 45 -45 0 -45 0 0 -45 0 -45 -45 0 -45 0 0 45 0 45 -45 0 -45 0
0 45 0 45 180 0 180 0 0 -45 0 -45 90 0 90 0 0 -90 0 -90 45 0 45 0 0 -45 0
-45 -45 0 -45 0 0 -90 0 -90 -45 0 -45 0 0 -45 0 -45 -45 0 -45 0 0 -45 0 -45
45 0 45 0 0 -45 0 -45 -45 0 -45 0 0 -45 0 -45 -90 0 -90 0 0 -135 0 -135 45
0 45 0 0 45 0 45 90 0 90 0 0 45 0 45 -45 0 -45 0 0 45 0 45 45 0 45 0 0 45 0
45 90 0 90 0 0 -90 0 -90 -45 0 -45 0 0 -90 0 -90 45 0 45 0 0 90 0 90 45 0
45 0 0 -45 0 -45 45 0 45 0 0 -45 0 -45 135 0 135 0 0 45 0 45 45 0 45 0 0 45
0 45 45 0 45 0 0 -45 0 -45 45 0 45 0 0 90 0 90 -45 0 -45 0 0 45 0 45 45 0
45 0 0 45 0 45 -45 0 -45 0 0 45 0 45 -45 0 -45 0 0 90 0 90 -90 0 -90 0 0
135 0 135 45 0 45 0 0 -90 0 -90 45 0 45 0 0 90 0 90 -45 0 -45 0 0 90 0 90
45 0 45 0 0 45 0 45 45 0 45 0 0 -90 0 -90 45 0 45 0 0 180 0 180 -45 0 -45 0
0 45 0 45 45 0 45 0 0 45 0 45 -45 0 -45 0 0 -45 0 -45 -45 0 -45 0 0 -45 0
-45 -45 0 -45 0 0 -45 0 -45 -45 0 -45 0 0 45 0 45 -45 0 -45 0 0 45 0 45 45
0 45 0 0 45 0 45 45 0 45 0 0 90 0 90 45 0 45 0 0 -45 0 -45 45 0 45 0 0 45 0
45 -45 0 -45 0 0 45 0 45 -90 0 -90 0 0 -45 0 -45 -90 0 -90 0 0 -45 0 -45
-45 0 -45 0 0 -45 0 -45 -45 0 -45 0 0 -45 0 -45 -90 0 -90 0 0 90 0 90 -45 0
-45 0 0 -135 0 -135 -45 0 -45 0 0 -45 0 -45 -90 0 -90 0 0 -45 0 -45 -45 0
-45 0 0 45 0 45 -90 0 -90 0 0 -45 0 -45 -45 0 -45 0 0 45 0 45 -45 0 -45 0 0
90 0 90 -45 0 -45 0 0 45 0 45 -45 0 -45 0 0 45 0 45 45 0 45 0 0 45 0 45 -45
0 -45 0 0 45 0 45 -90 0 -90 0 0 -45 0 -45 90 0 90 0 0 -45 0 -45 -135 0 -135
0 0 -45 0 -45 90 0 90 0 0 -45 0 -45 -180 0 -180 0 0 135 0 135 90 0 90 0 0
45 0 45 -90 0 -90 0 0 -45z m1980 -180 l0 -45 -90 0 -90 0 0 -45 0 -45 -45 0
-45 0 0 45 0 45 45 0 45 0 0 45 0 45 90 0 90 0 0 -45z m-270 -270 l0 -45 45 0
45 0 0 45 0 45 45 0 45 0 0 -45 0 -45 45 0 45 0 0 -135 0 -135 -45 0 -45 0 0
-135 0 -135 -45 0 -45 0 0 45 0 45 -90 0 -90 0 0 45 0 45 45 0 45 0 0 45 0 45
-45 0 -45 0 0 45 0 45 -45 0 -45 0 0 45 0 45 45 0 45 0 0 -45 0 -45 90 0 90 0
0 45 0 45 -45 0 -45 0 0 45 0 45 -180 0 -180 0 0 45 0 45 180 0 180 0 0 -45z
m540 0 l0 -45 -45 0 -45 0 0 -45 0 -45 -45 0 -45 0 0 45 0 45 45 0 45 0 0 45
0 45 45 0 45 0 0 -45z m-2340 -180 l0 -45 45 0 45 0 0 -45 0 -45 -45 0 -45 0
0 45 0 45 -45 0 -45 0 0 45 0 45 45 0 45 0 0 -45z m1080 0 l0 -45 -45 0 -45 0
0 -45 0 -45 45 0 45 0 0 -45 0 -45 45 0 45 0 0 -45 0 -45 -90 0 -90 0 0 -45 0
-45 135 0 135 0 0 -45 0 -45 -45 0 -45 0 0 -45 0 -45 -90 0 -90 0 0 90 0 90
-45 0 -45 0 0 45 0 45 -45 0 -45 0 0 45 0 45 -45 0 -45 0 0 -45 0 -45 -45 0
-45 0 0 -45 0 -45 -45 0 -45 0 0 45 0 45 45 0 45 0 0 90 0 90 90 0 90 0 0 -45
0 -45 90 0 90 0 0 45 0 45 -45 0 -45 0 0 45 0 45 45 0 45 0 0 45 0 45 45 0 45
0 0 -45z m900 -630 l0 -135 -135 0 -135 0 0 135 0 135 135 0 135 0 0 -135z
m180 0 l0 -45 45 0 45 0 0 -45 0 -45 45 0 45 0 0 -45 0 -45 -135 0 -135 0 0
-45 0 -45 -45 0 -45 0 0 -90 0 -90 -45 0 -45 0 0 45 0 45 -45 0 -45 0 0 90 0
90 45 0 45 0 0 -45 0 -45 45 0 45 0 0 45 0 45 45 0 45 0 0 45 0 45 45 0 45 0
0 45 0 45 -45 0 -45 0 0 45 0 45 45 0 45 0 0 -45z m-1260 -225 l0 -90 45 0 45
0 0 -45 0 -45 -45 0 -45 0 0 45 0 45 -45 0 -45 0 0 45 0 45 -45 0 -45 0 0 45
0 45 90 0 90 0 0 -90z m1350 -135 l0 -45 -45 0 -45 0 0 -45 0 -45 -45 0 -45 0
0 45 0 45 45 0 45 0 0 45 0 45 45 0 45 0 0 -45z"/>
<path d="M6360 4530 l0 -90 45 0 45 0 0 90 0 90 -45 0 -45 0 0 -90z"/>
<path d="M5460 4440 l0 -90 45 0 45 0 0 -90 0 -90 180 0 180 0 0 45 0 45 -135
0 -135 0 0 45 0 45 45 0 45 0 0 90 0 90 -45 0 -45 0 0 -45 0 -45 -45 0 -45 0
0 45 0 45 -45 0 -45 0 0 -90z"/>
<path d="M6000 4485 l0 -45 -90 0 -90 0 0 -45 0 -45 135 0 135 0 0 90 0 90
-45 0 -45 0 0 -45z"/>
<path d="M4560 3045 l0 -315 315 0 315 0 0 315 0 315 -315 0 -315 0 0 -315z
m540 0 l0 -225 -225 0 -225 0 0 225 0 225 225 0 225 0 0 -225z"/>
<path d="M4740 3045 l0 -135 135 0 135 0 0 135 0 135 -135 0 -135 0 0 -135z"/>
<path d="M2497 574 c-4 -4 -7 -52 -7 -106 0 -95 1 -98 23 -98 28 0 41 9 56 37
15 29 14 112 -2 143 -12 24 -55 39 -70 24z"/>
<path d="M13600 565 c-15 -18 -25 -103 -16 -139 8 -34 33 -56 62 -56 l25 0 -3
103 c-3 101 -3 102 -29 105 -14 2 -31 -4 -39 -13z"/>
<path d="M9081 639 c-6 -18 -11 -71 -11 -119 0 -100 13 -150 40 -150 27 0 40
50 40 150 0 48 -5 101 -11 119 -15 41 -43 41 -58 0z"/>
<path d="M4040 564 c-8 -9 -16 -44 -18 -78 -3 -74 12 -111 48 -111 16 0 29 9
37 25 16 32 16 118 0 150 -15 30 -49 37 -67 14z"/>
<path d="M5730 564 c-8 -9 -16 -44 -18 -78 -3 -74 12 -111 48 -111 16 0 29 9
37 25 16 32 16 118 0 150 -15 30 -49 37 -67 14z"/>
<path d="M10390 564 c-8 -9 -16 -44 -18 -78 -3 -74 12 -111 48 -111 16 0 29 9
37 25 16 32 16 118 0 150 -15 30 -49 37 -67 14z"/>
<path d="M11135 566 c-26 -19 -33 -117 -11 -151 13 -19 24 -25 44 -23 27 3 27
3 30 96 3 91 2 92 -21 92 -13 0 -31 -6 -42 -14z"/>
<path d="M2913 10383 c-41 -4 -42 -5 -47 -46 -6 -41 -19 -446 -32 -929 l-6
-246 -92 -7 c-102 -7 -315 -32 -361 -42 -24 -5 -4 -11 95 -32 110 -22 150 -25
335 -25 196 0 221 2 370 32 l160 32 75 -21 c41 -12 107 -36 146 -54 l70 -32
12 546 c7 300 15 603 19 672 l6 126 -69 7 c-238 23 -541 31 -681 19z"/>
<path d="M8915 10379 c-44 -4 -115 -13 -157 -20 l-78 -11 0 -598 0 -598 -22
-6 c-13 -3 -39 -6 -58 -7 -33 0 44 -16 343 -68 82 -14 162 -21 255 -21 134 0
302 16 302 30 0 3 -31 14 -70 24 l-70 18 -2 632 -3 631 -180 1 c-99 1 -216 -2
-260 -7z"/>
<path d="M14915 10374 c-160 -17 -308 -47 -434 -86 l-103 -32 6 -66 c3 -36 11
-294 17 -575 6 -280 13 -511 14 -513 2 -2 59 6 128 18 178 30 359 28 547 -5
80 -14 197 -34 262 -46 70 -12 147 -19 195 -17 l78 3 -89 29 c-72 23 -267 64
-312 66 -8 0 -14 77 -18 258 -11 449 -26 875 -32 930 l-5 52 -67 -1 c-37 -1
-121 -7 -187 -15z"/>
<path d="M14210 910 l0 -580 415 0 415 0 0 110 0 110 -285 0 -285 0 0 140 0
140 235 0 235 0 0 110 0 110 -235 0 -235 0 0 110 0 110 265 0 265 0 0 110 0
110 -395 0 -395 0 0 -580z"/>
<path d="M15380 1205 l190 -285 -104 -148 c-90 -129 -192 -284 -265 -404 l-23
-38 150 0 150 0 62 103 c33 56 87 137 118 179 l57 77 28 -27 c38 -36 106 -139
163 -246 l46 -86 159 0 160 0 -12 23 c-74 139 -228 377 -324 503 l-62 80 64
93 c35 51 120 176 188 277 l126 184 -148 0 -148 0 -110 -164 -110 -163 -109
163 -109 164 -164 0 -163 0 190 -285z"/>
<path d="M16450 910 l0 -580 130 0 130 0 0 580 0 580 -130 0 -130 0 0 -580z"/>
<path d="M16910 1380 l0 -110 175 0 175 0 0 -470 0 -470 130 0 130 0 0 470 0
470 175 0 175 0 0 110 0 110 -480 0 -480 0 0 -110z"/>
</g>
</svg>
