<svg xmlns="http://www.w3.org/2000/svg" version="1.0" width="2400" height="2400" viewBox="0 0 1800 1800"><path d="M0 900v900h1601v-472.9l-3.7-1c-7.1-1.8-64.8-17.2-66.5-17.7-1.7-.5-1.8 10.8-1.8 227V1763h-42.6l-2.9-3-2.9-3h-51.1l-24.5-24.5-24.5-24.5h51l18.2 18.2 18.3 18.3v-453l-43-11.5-43-11.5 122.9-.5c122.2-.5 123-.5 125.7-2.6 1.5-1.1 3.7-3.3 4.8-4.8 2.1-2.7 2.1-3.2 2.1-109.1 0-105.9 0-106.4-2.1-109.1-1.1-1.5-3.3-3.7-4.8-4.8-2.7-2-3.9-2.1-47.1-2.1s-44.4.1-47.1 2.1c-1.5 1.1-3.7 3.3-4.8 4.8-2.1 2.7-2.1 3.6-2.4 95.7l-.2 92.9h-61v-193.1c0-154.1-.3-193-1.2-192.7-.7.3-24.8 6.7-53.5 14.4l-52.3 13.9.3 152.9.2 152.9 21.9 12.6 22 12.6-34.2.5c-32.4.5-34.2.6-36.8 2.6-5.4 4-6.8 7-7.2 15.1-.6 11.6.2 13.3 13.3 26.3 9.4 9.4 12.3 11.7 15.8 12.5l4.2 1.1.3 187.4.2 187.4 3.7 3.8 3.7 3.8h-50.9l21.8 21.8 21.7 21.7v74.5h-64.9l-.3-15.9c-.3-17.4-.7-18.7-7.2-23.5-2.6-2-4-2.1-36.1-2.1s-33.5.1-36.1 2.1c-6.5 4.8-6.9 6.1-7.2 23.5l-.3 15.9H1156v-279.5l26.5 26.5 26.5 26.4.2 71.8c.3 70.6.3 71.7 2.4 74.4 1.1 1.5 3.3 3.7 4.8 4.8 2.6 2 4 2.1 36.1 2.1s33.5-.1 36.1-2.1c1.5-1.1 3.7-3.3 4.8-4.8 2-2.6 2.1-4.3 2.4-30.9l.3-28.1-21.8-21.8-21.8-21.8h50.9l-3.7-3.8-3.7-3.8-.2-87.6c-.3-86.8-.3-87.7-2.4-90.4-1.1-1.5-3.3-3.7-4.8-4.8-2.6-2-4-2.1-36.1-2.1s-33.5.1-36.1 2.1c-1.5 1.1-3.7 3.3-4.8 4.8-2 2.6-2.1 4.3-2.6 46.7l-.5 44-4-4.1-3.9-4h-51l-12.6-12.4c-11.6-11.5-12.9-12.4-17.8-13.5-7.4-1.5-11.1-1.4-15.7.8-4.6 2.1-7.9 5.4-9.4 9.4-.8 2-1.1 48.8-1.1 152.3V1763h-49.8l-.7-3-.7-3H835.4c-113.5 0-206.4-.3-206.4-.8 0-.4 2.8-11.4 6.2-24.4l6.3-23.7 29.7-.3c28.1-.3 29.8-.4 32.4-2.4 6.8-5 6.9-5.4 6.9-28.9 0-20-.1-21.5-2.1-24.1-5-6.7-5.5-6.9-28.5-7.2-13.1-.2-20.9-.7-20.9-1.3 0-.6 2-8.5 4.5-17.7 4.4-16.2 4.5-17 4.5-31.4V1580l91.9-.2c91.1-.3 92-.3 94.7-2.4 1.5-1.1 3.7-3.3 4.8-4.8 2-2.7 2.1-3.9 2.1-44.1s-.1-41.4-2.1-44.1c-1.1-1.5-3.3-3.7-4.8-4.8-2.7-2-4.1-2.1-48.7-2.4-25.2-.1-45.9-.5-45.9-.9 0-.3 2.3-9.2 5.1-19.7l5.1-19.1 8.6-8.7 8.7-8.8h81.7c45 0 81.8-.3 81.8-.8 0-.4-3.7-14.5-8.2-31.5l-8.2-30.7h-52.9c-41.9 0-52.8.3-52.4 1.2.2.7 1.3 4.6 2.3 8.6l1.9 7.2-16.5 16.5-16.5 16.5-.5-32.9c-.5-31.3-.6-33.1-2.6-35.7-1.1-1.5-3.3-3.7-4.8-4.8-2.6-2-4-2.1-32.1-2.1s-29.5.1-32.1 2.1c-1.5 1.1-3.7 3.3-4.8 4.8-2.1 2.7-2.1 3.8-2.6 92.9l-.5 90.2-23.5 13.7c-12.9 7.5-23.8 13.7-24.2 13.7-.4.1-.8-11.3-1-25.3-.3-28-.3-27.9-7.2-33-2.6-2-4-2.1-36.1-2.1s-33.5.1-36.1 2.1c-1.5 1.1-3.7 3.3-4.8 4.8-2.1 2.7-2.1 3.2-2.4 135.2L585 1763h-65v-387.5l9.2-9.2 9.3-9.3h-143l-15.7 15.7-15.8 15.8v-108.9c0-91.2-.2-108.7-1.4-108.3-1.8.7-80.2 21.7-81 21.7-.3 0-.6 62.7-.6 139.2v139.3l25.8-25.8 25.7-25.7h143l-17.3 17.3-17.2 17.2V1763h-77v-231.5l27.2-27.2 27.3-27.3h-143l-27.7 27.7-27.8 27.8v-305.1l19-11 18.9-10.9-115.9-.3-116-.2v-31.5c0-17.3.2-31.5.4-31.5.3 0 8-2.1 17.3-4.8l16.8-4.7 161.2-.5c160.8-.5 161.2-.5 163.9-2.6 1.5-1.1 3.7-3.3 4.8-4.8 2-2.6 2.1-4 2.1-30.1s-.1-27.5-2.1-30.1c-4.9-6.6-5.8-6.9-26.2-7.4l-18.7-.5 9.3-2.4 9.2-2.3-.2-98.6-.3-98.7-40-10.7c-22-5.9-40.6-10.8-41.2-10.8-1 0-1.3 24.7-1.3 120.5v120.4l-3.7 1c-2.1.5-15.7 4.2-30.2 8-14.5 3.9-26.5 7.1-26.7 7.1-.2 0-.4-61.6-.4-136.9V816.2l14.8 3.9 14.7 3.9 147-.1 147-.1-11.7-3.1-11.8-3.1-.2-233.7-.3-233.8-2.1-2.7c-1.1-1.5-3.3-3.7-4.8-4.8-2.6-2-4-2.1-32.1-2.1s-29.5.1-32.1 2.1c-1.5 1.1-3.7 3.3-4.8 4.8-2.1 2.7-2.1 3.3-2.6 143.9-.3 77.7-.9 139.8-1.3 138.2-.4-1.7-3.5-13.2-6.9-25.8l-6.1-22.8-51.3.3c-50 .3-51.3.4-54 2.4-1.5 1.1-3.7 3.3-4.8 4.8-2 2.6-2.1 4-2.1 34.1s.1 31.5 2.1 34.1c1.1 1.5 3.3 3.7 4.8 4.8 2.7 2.1 3.9 2.1 65.1 2.4 58.1.2 62.4.4 62.9 2 .3.9 5.5 20.4 11.6 43.2 6.1 22.8 11.3 42.1 11.5 42.7.4 1-44.7 1.3-223 1.3H26v-89l123.4-.2c122.9-.3 123.5-.3 126.2-2.4 1.5-1.1 3.7-3.3 4.8-4.8 2-2.6 2.1-4 2.1-34.1s-.1-31.5-2.1-34.1c-1.1-1.5-3.3-3.7-4.8-4.8-2.7-2.1-3.3-2.1-126.2-2.4L26 581v-88.9l20.4-.3c22.4-.3 23-.5 28-7.2 2-2.6 2.1-4.1 2.1-28.1s-.1-25.5-2.1-28.1c-5-6.7-5.6-6.9-28-7.2l-20.4-.3V340h150V0H0v900zm137-742.3v128.8l-10.8-10.8-10.7-10.7H26v-81h4.2c4.2 0 4.6.3 25 20.7L76 225.5V29h61v128.7zm-29.5 628.2l29 7.8.3 159.4.2 159.4-19.7 5.2c-10.9 2.9-24.6 6.6-30.5 8.2l-10.8 2.9V953.4c0-139.7.3-175.4 1.3-175.4.6.1 14.3 3.6 30.2 7.9zm35.8 485.7l-6.3 3.6V1615.5l17.8-17.8 17.7-17.7h143l-17.3 17.3-17.2 17.2V1763h-61v-87.5l15.2-15.2 15.3-15.3h-143l-15.7 15.7-15.8 15.8v-182.8c0-100.5-.2-182.7-.4-182.7-.3 0-11.3 6.3-24.7 14-13.3 7.7-24.4 14-24.6 14-.1 0-.3-16-.3-35.5V1268h61.8l61.7.1-6.2 3.5zm19.7 460.9l-24.5 24.5H26v-30.5l9.2-9.2 9.3-9.3h143l-24.5 24.5z"/><path d="M286 216.5c0 175.4-.2 216.5-1.3 216.5-.7 0-3.9-2.7-7.2-6l-6-6-76.7.2c-75.6.3-76.7.3-79.4 2.4-1.5 1.1-3.7 3.3-4.8 4.8-2 2.6-2.1 4.1-2.1 28.1s.1 25.5 2.1 28.1c1.1 1.5 3.3 3.7 4.8 4.8 2.7 2.1 3.4 2.1 114.9 2.4l112.2.2 10.7 10.7 10.8 10.8V83h77l.2 107.9c.3 107.3.3 108 2.4 110.7 1.1 1.5 3.3 3.7 4.8 4.8 2.6 2 4 2.1 32.1 2.1s29.5-.1 32.1-2.1c1.5-1.1 3.7-3.3 4.8-4.8 2.1-2.7 2.1-3.4 2.4-110.7L520 83h65v751.9l3.8 1c8.1 2.2 79.8 21.3 81.5 21.7 1.6.5 1.7-8 1.7-168.1V520.8l-3.7-6.6-3.7-6.5 2-7.6 1.9-7.6 62.8-.3c61.6-.2 62.7-.2 62.7 1.7 0 1.1-.4 2.3-1 2.6-1.7 1.1-1.1 3.7.8 3.3 1.3-.3 2.2 1.1 3.9 6.2l2.1 6.5.1-10.6.1-10.6 21.3-16.5c11.6-9 21.8-16.8 22.5-17.2.9-.6 1.2 16.1 1.2 82.2v83l-5.1.7c-2.7.4-5.2.5-5.5.2-.3-.2-3.4-9.8-6.9-21.2-3.6-11.4-6.6-20.9-6.8-21.2-.2-.2-25.8-.2-57-.1l-56.6.3 7 12 6.9 12V778h-22v131l-65.2.1c-37.2 0-64.2.4-62.8.9 1.4.5 5.1 1.6 8.3 2.5l5.7 1.6V1037h87l.2-49.8.3-49.9 13.3 3.6 13.2 3.5V1057l-132.4.2c-132 .3-132.5.3-135.2 2.4-1.5 1.1-3.7 3.3-4.8 4.8-2 2.6-2.1 4-2.1 30.1s.1 27.5 2.1 30.1c1.1 1.5 3.3 3.7 4.8 4.8 2.6 2 4.3 2.1 39.8 2.6l37 .5-33.6 9-33.6 8.9v161.1l15.8-15.6c13.6-13.6 17.1-16.5 26.3-21.8l10.6-6.1h133.8l-21.3 21.3-21.2 21.3.2 68.1c.3 67.1.3 68.2 2.4 70.9 1.1 1.5 3.3 3.7 4.8 4.8 2.6 2 4 2.1 36.1 2.1s33.5-.1 36.1-2.1c1.5-1.1 3.7-3.3 4.8-4.8 2.1-2.7 2.1-3.7 2.6-105.3l.5-102.5 24-13.9 24-13.8.5 37.9c.5 36.3.6 38 2.6 40.6 1.1 1.5 3.3 3.7 4.8 4.8 2.6 2 4.3 2.1 29.9 2.4 17.4.2 28.5-.1 30.9-.7 4.4-1.4 9.5-6.9 10.3-11.3.3-1.8.4-29.4.3-61.3l-.3-58.1-31.7 18.3-31.7 18.3-66.1-.2-66.2-.3 33.9-19.6 33.8-19.5.3-38.5.2-38.4 13.5-3.6 13.5-3.6V1166h146v63.5l-19.2 19.2-19.3 19.3h104.2l6.1 22.8c3.4 12.5 7.2 26.5 8.4 31.2l2.3 8.5.5-37.3.5-37.3 6 6.1 5.9 6h51.1l24.2 24.2 24.3 24.3V1166h36v-35.5c0-19.5.3-35.5.7-35.5.4 0 4.2.9 8.5 2.1l7.8 2.1v270.2l-6.3-6.2-6.3-6.2h-50.9l-26-26-26-26-.5 104.2-.5 104.3-4.9-18.3-4.9-18.3-31.8.3c-30.3.3-31.9.4-34.5 2.4-1.5 1.1-3.7 3.3-4.8 4.8-2 2.7-2.1 3.9-2.1 44.1s.1 41.4 2.1 44.1c1.1 1.5 3.3 3.7 4.8 4.8 2.7 2 4.3 2.1 48.4 2.6l45.7.5 8.6 32 8.5 32-129.7.5c-129.1.5-129.8.5-132.5 2.6-6.8 5-6.9 5.4-6.9 28.9s.1 23.9 6.9 28.9c2.7 2.1 3.1 2.1 141 2.4l138.3.2 2.2 8.5 2.3 8.5h6.8v-357.5l26.3 26.3 26.2 26.2h50.9l6.3 6.2 6.3 6.2v-316.2l14.3 3.8c7.8 2 19.7 5.2 26.4 7l12.3 3.2.2 107.9c.3 107.1.3 107.8 2.4 110.5 1.1 1.5 3.3 3.7 4.8 4.8 2.6 2 4 2.1 36.1 2.1s33.5-.1 36.1-2.1c1.5-1.1 3.7-3.3 4.8-4.8 2.1-2.7 2.1-3.8 2.4-73.4l.2-70.7-34.8-34.8c-32.3-32.3-35.2-34.9-39.8-36.2-4.4-1.2-1.7-1.3 26.8-1.4l31.6-.1 7.6 4.5c4.2 2.5 7.9 4.5 8.1 4.5.3 0 .5-56.3.5-125.1 0-118.6-.1-125-1.7-124.5-1 .3-16.1 4.4-33.6 9.1l-31.8 8.5H1076v-85l92.9-.2c92.1-.3 93-.3 95.7-2.4 1.5-1.1 3.7-3.3 4.8-4.8 2-2.6 2.1-4.1 2.1-28.1s-.1-25.5-2.1-28.1c-1.1-1.5-3.3-3.7-4.8-4.8-2.7-2-4.1-2.1-46.2-2.4l-43.4-.3-9.5 5.5-9.5 5.5-.2-175.4c-.3-175.3-.3-175.4-2.4-178.1-5-6.8-5.4-6.9-28.9-6.9s-23.9.1-28.9 6.9c-2 2.7-2.1 4.1-2.4 45.6l-.3 42.8 13.1 22.5c7.1 12.5 13 23.2 13 23.9 0 .7-4.5 8.9-9.9 18.3l-9.9 17-84.8.3c-66.3.2-85 .5-85.6 1.5-.4.6-.8-25.7-.8-58.7v-59.8l9 8.3c5 4.6 11.9 11 15.4 14.2l6.3 5.7 65-.2 65-.3-20.2-35-20.2-35-82.7-.3-82.8-.2-10-9.3c-5.4-5-10.5-9.3-11.3-9.5-.9-.2-1.8 2-3 7.5-.9 4.3-1.9 8.6-2.2 9.5-.4 1.7-5.5 1.8-84.6 2l-84.1.3-7.6 28.2-7.5 28.2-.3-173.6c-.1-95.5 0-173.8.2-174 .2-.2 11.1 5.8 24.2 13.4l23.9 13.8.3 69.7.2 69.7-5.5 20.4c-3 11.2-5.5 20.9-5.5 21.5 0 .9 34.2 1.2 145.8 1.2l145.7.1 19 33.1 19 33.1.5-140.4c.3-77.2.9-141.4 1.4-142.7l.8-2.2h-385l-30.8-17.8c-17-9.8-31.8-18.3-32.9-19-1.5-.9 58.6-1.1 248.7-1.2H1093l.2 139.4c.3 139.1.3 139.5 2.4 142.2 5 6.8 5.4 6.9 28.9 6.9s23.9-.1 28.9-6.9c2.1-2.7 2.1-3.1 2.4-142.2L1156 83h53l.2 325 .3 325 43-24.8 43-24.9.3-300.1.2-300.2h64.9l.3 36.9c.3 35.5.4 37.1 2.4 39.7 1.1 1.5 3.3 3.7 4.8 4.8 2.7 2 3.9 2.1 46.1 2.1s43.4-.1 46.1-2.1c1.5-1.1 3.7-3.3 4.8-4.8 2-2.6 2.1-4.2 2.4-39.7l.3-36.9h60.9l.2 68.3.3 68.3 30.5-17.7 30.5-17.7 90.8-.1 90.7-.1v32.7l-.1 32.8-13.3 7.7-13.3 7.8h-248.8l-9.8 36.7c-5.4 20.3-9.8 37.1-9.7 37.5 0 .5 31.7.9 70.5 1l70.6.3-26.1 15.4c-14.3 8.4-26 16-26 16.7 0 .8.1 1.4.3 1.4.6 0 65.7 9 68.5 9.5l3.2.6v-55.6l24.6-14.5c13.5-8 24.9-14.6 25.4-14.8.6-.2 1 17 1 45.6v46l2.3.5c1.2.3 8.4 1.3 16 2.3 7.5 1 13.7 2 13.6 2.3 0 .3-6.2 6.1-13.7 12.8l-13.7 12.2-119.2.1c-65.6 0-119.3-.3-119.3-.6s2.9-11.4 6.5-24.8l6.5-24.2-.2-81.6c-.3-80.7-.3-81.7-2.4-84.4-1.1-1.5-3.3-3.7-4.8-4.8-2.7-2-3.9-2.1-46.1-2.1s-43.4.1-46.1 2.1c-1.5 1.1-3.7 3.3-4.8 4.8l-2.1 2.7-.3 218.8-.2 218.7-15.6 8.9-15.5 9 68.8.3c37.8.1 70.3 0 72.1-.3 4.4-.8 9.9-5.9 11.3-10.3.6-2.4.9-14.1.7-32.9-.3-27.6-.4-29.3-2.4-31.9-1.1-1.5-3.3-3.7-4.8-4.8-2.6-2-4.2-2.1-33.2-2.4-28.2-.3-30.5-.4-30-2 .3-.9 5.5-20.6 11.6-43.7 6.2-23.1 11.5-42.3 11.9-42.8.4-.4 40.5-.6 89.1-.5l88.5.3-26.8 24c-22.6 20.3-28.8 26.5-26.3 26.5.9 0 71.2 8 74.4 8.4l3.2.5v-81.4l25.3-22.6 25.2-22.6.3 66.1.2 66.2 21.8 2.3c11.9 1.3 22 2.7 22.4 3 .3.3-3.7 4.4-8.9 9.1l-9.5 8.5-95.3.5c-94.4.5-95.4.5-98.1 2.6-1.5 1.1-3.7 3.3-4.8 4.8-2 2.6-2.1 4-2.1 34.1s.1 31.5 2.1 34.1c1.1 1.5 3.3 3.7 4.8 4.8 2.7 2 4.2 2.1 51.8 2.6l49.1.5-28.6 25.9c-15.8 14.3-28.7 26.6-28.7 27.3 0 .7.6 1.3 1.3 1.3.7 0 16.7-2.7 35.5-6 18.9-3.3 34.7-6 35.2-6 .6 0 1-11.1 1-28.4v-28.3l25.5-23.2 25.5-23.2V651c0 44.4.1 47.1 1.8 46.6.9-.3 18.8-3.4 39.7-7.1 20.9-3.6 38.8-6.7 39.8-6.9 1.6-.4 1.7 1.8 1.7 34.5V753l-229.4.2-229.5.3-2.7 2.1c-1.5 1.1-3.7 3.3-4.8 4.8-2 2.6-2.1 4.1-2.1 28.1s.1 25.5 2.1 28.1c1.1 1.5 3.3 3.7 4.8 4.8 2.7 2.1 3.5 2.1 118.4 2.6l115.7.5-7.8 2-7.7 1.9.2 82.7c.3 81.8.3 82.8 2.4 85.5 1.1 1.5 3.3 3.7 4.8 4.8 2.7 2 3.9 2.1 47.1 2.1s44.4-.1 47.1-2.1c1.5-1.1 3.7-3.3 4.8-4.8 2.1-2.7 2.1-3.5 2.4-100l.2-97.3 23.3-6.2c12.7-3.4 24.2-6.4 25.4-6.7l2.3-.6.2 236 .3 236.1 2.1 2.7c1.1 1.5 3.3 3.7 4.8 4.8 2.6 2 4.2 2.1 39.2 2.4l36.4.3v88.9h-54v443h82V0H286v216.5zm1119-173V69h-5V18h5v25.5zM394 31.2v12.3l3.8-5.7c2.8-4.3 4.3-5.8 6.1-5.8 2.6 0 3-.9-3.7 9.3l-2.5 3.8 2 2.2c1.1 1.2 3.3 4.3 4.8 6.9l2.7 4.8h-2.4c-1.7 0-2.9-1-4.3-3.6-1-1.9-2.9-4.9-4.2-6.7l-2.3-3.1v6.7c0 6-.2 6.7-2 6.7-1.9 0-2-.7-2-19.3 0-10.7.3-19.7.7-20 .3-.4 1.2-.7 2-.7 1 0 1.3 2.7 1.3 12.2zm681-5.8c0 6.2 0 6.3 2.5 5.8 7.9-1.5 10.5 2.9 10.5 17.8 0 9.3-.1 10-2 10s-2-.7-2-10.4c0-11.6-.9-13.6-6.1-13.6h-2.9v12c0 11.3-.1 12-2 12s-2-.7-2-19.3c0-10.7.3-19.7.7-20 .3-.4 1.2-.7 2-.7.9 0 1.3 1.7 1.3 6.4zm202 0c0 6.2 0 6.3 2.5 5.8 7.9-1.5 10.5 2.9 10.5 17.8 0 9.3-.1 10-2 10s-2-.7-2-10.4c0-11.6-.9-13.6-6.1-13.6h-2.9v12c0 11.3-.1 12-2 12s-2-.7-2-19.3c0-10.7.3-19.7.7-20 .3-.4 1.2-.7 2-.7.9 0 1.3 1.7 1.3 6.4zm270 0c0 6.2 0 6.3 2.5 5.8 7.9-1.5 10.5 2.9 10.5 17.8 0 9.3-.1 10-2 10s-2-.7-2-10.4c0-11.6-.9-13.6-6.1-13.6h-2.9v12c0 11.3-.1 12-2 12s-2-.7-2-19.3c0-10.7.3-19.7.7-20 .3-.4 1.2-.7 2-.7.9 0 1.3 1.7 1.3 6.4zM1771 39v19.9l-3.4.7c-4.9.9-9.4-.4-11.2-3.2-2.1-3.1-2.9-12.9-1.5-18.2 1.4-5 4.8-7.6 9.1-7l3 .5V26c0-5.9.4-7 2.7-7 1 0 1.3 4 1.3 20zm-544.5-14.5c3.2 3.1 3.3 8.7.2 13.6-7 11.5-8.7 14.5-8.7 15.6 0 .9 1.9 1.3 6 1.3 5.3 0 6 .2 6 2s-.7 2-8 2h-8v-2.8c0-3.4 3-10 7.1-15.7 5.9-8.2 4-16.5-3-13.8-2.4.9-3.3.8-4.1-.2-.8-1-.5-1.7 1.2-2.9 3.4-2.4 8.5-2 11.3.9zm22 0c3.2 3.1 3.3 8.1.2 12.6l-2.3 3.4 2.3 3.4c3.3 4.8 3 9.5-.6 13.2-1.6 1.6-3.9 2.9-5 2.9-8.1 0-11.7-8.8-6.7-16.2 2.4-3.6 2.4-3.6.5-6.4-4.3-6.6-.8-15.4 6.1-15.4 1.9 0 4 .9 5.5 2.5zm69 0c3.2 3.1 3.3 8.7.2 13.6-7 11.5-8.7 14.5-8.7 15.6 0 .9 1.9 1.3 6 1.3 5.3 0 6 .2 6 2s-.7 2-8 2h-8v-2.8c0-3.4 3-10 7.1-15.7 5.9-8.2 4-16.5-3-13.8-2.4.9-3.3.8-4.1-.2-.8-1-.5-1.7 1.2-2.9 3.4-2.4 8.5-2 11.3.9zm21.9.8c1.9 2.5 2.1 4.2 2.1 15.7s-.2 13.1-2.1 15.7c-2.9 3.8-7.9 3.9-10.7.2-2.2-3-3.5-17.1-2.3-25.2 1.4-9.4 8.3-12.7 13-6.4zm-996.8 1.1c2.9 3.3 3.1 7.5.4 10.9l-2 2.6 2.5 2.5c2.7 2.7 3.2 6.6 1.5 11.1-1.2 3.2-6.4 5.5-12.4 5.5-7.9 0-7.6.8-7.6-18 0-12.5.3-17 1.3-17.4.6-.3 4.1-.4 7.6-.3 5.5.3 6.7.7 8.7 3.1zm133.2 6.9c1.8 5.6 3.2 10.8 3.2 11.5 0 2.6 1.8 1 2.4-2.1.4-1.7 1.8-6.9 3.2-11.5 2.3-7.8 2.6-8.2 5.3-8.2 2.6 0 2.9.4 3.4 4.2.4 2.4.9 10.5 1.3 18l.6 13.8h-2.6c-2.6 0-2.6-.1-2.7-7.8-.1-4.2-.4-10.4-.8-13.7l-.6-6-1.2 4c-.6 2.2-2.1 7.3-3.3 11.2-3.1 10.9-4.7 10.2-9-4l-3.5-11.2-.7 4.5c-.3 2.5-.7 8.7-.7 13.7L470 59H464.7l.7-14.3c1-20.6 1.2-21.7 4.5-21.7 2.7 0 2.9.5 5.9 10.3zm129 0c1.8 5.6 3.2 10.8 3.2 11.5 0 2.6 1.8 1 2.4-2.1.4-1.7 1.8-6.9 3.2-11.5 2.3-7.8 2.6-8.2 5.3-8.2 2.6 0 2.9.4 3.4 4.2.4 2.4.9 10.5 1.3 18l.6 13.8h-2.6c-2.6 0-2.6-.1-2.7-7.8-.1-4.2-.4-10.4-.8-13.7l-.6-6-1.2 4c-.6 2.2-2.1 7.3-3.3 11.2-3.1 10.9-4.7 10.2-9-4l-3.5-11.2-.7 4.5c-.3 2.5-.7 8.7-.7 13.7L599 59H593.7l.7-14.3c1-20.6 1.2-21.7 4.5-21.7 2.7 0 2.9.5 5.9 10.3zm133.8-6.9c2.9 3.3 3.1 7.5.4 10.9l-2 2.6 2.5 2.5c2.7 2.7 3.2 6.6 1.5 11.1-1.2 3.2-6.4 5.5-12.4 5.5-7.9 0-7.6.8-7.6-18 0-12.5.3-17 1.3-17.4.6-.3 4.1-.4 7.6-.3 5.5.3 6.7.7 8.7 3.1zm41.1 5.9l3.6 8.9 2.9-6.9c1.6-3.7 3.3-7.8 3.8-9.1.6-1.2 1.8-2.2 3-2.2 1.9 0 1.9.1-.4 6.2-1.3 3.5-3.3 8.5-4.5 11.1-1.5 3.4-2.1 6.9-2.1 11.8 0 6.7-.1 6.9-2.5 6.9s-2.5-.2-2.5-6.9c0-5-.6-8.3-2.4-12.2-1.3-3-3.3-8-4.5-11.2l-2.1-5.8 2.1.3c1.6.2 2.9 2.3 5.6 9.1zM918 25c0 1.8-.7 2-5.5 2H907v11h5c4.3 0 5 .3 5 2s-.7 2-5 2h-5v8.5c0 8.4 0 8.5-2.5 8.5H902V23h8c7.3 0 8 .2 8 2zm211 13c0 16-.7 19.1-4.7 20.9-5.2 2.4-12.5.6-11.6-2.8.4-1.6.9-1.9 2.3-1.1 3 1.6 6.8 1.2 8-.9.5-1.1 1-8.4 1-16.5V23h5v15zm229 3c0 17.3-.1 18-2 18s-2-.7-2-14c0-12.8-.6-16-2.5-13-.9 1.5-2.2 1.2-2.9-.5-.6-1.6 5.9-8.4 8.2-8.5.9 0 1.2 4.3 1.2 18zm24-16.1c0 1.6-.8 2-3.7 2.3-3.7.3-3.8.4-4.1 4.9-.3 4.3-.1 4.7 2.8 5.9 5.5 2.3 7.8 10.7 4.5 17-1.8 3.5-4.3 5-8.2 5-3.7 0-5.5-1.3-4.8-3.3.5-1.1 1.5-1.4 3.9-1 2.7.4 3.6.1 5-1.8 2.1-3.1 2-8.2-.1-10.2-1-.8-3.1-1.9-4.7-2.3-2.8-.7-2.8-.8-2.2-5.8.3-2.8.6-6.8.6-8.9V23h5.5c4.8 0 5.5.3 5.5 1.9zm46.7 3.3c1.4 2.6 4 8.3 5.9 12.5l3.4 7.8V23h5v36h-2.3c-1.8 0-2.7-1-4.1-4.8-.9-2.6-3.7-8.8-6.1-13.7l-4.3-9-.1 13.7-.1 13.8h-5V22.9l2.6.3c2 .2 3.3 1.5 5.1 5zm66.2-4.1c6.2 2.2 8.1 11.3 3.5 16.8-2.5 3-2.5 3.3-1 5.6.9 1.3 2.5 4.7 3.6 7.5l2 5h-2.3c-1.8 0-2.7-1.3-5-7-2.6-6.4-3.1-7-5.8-7h-2.9v7c0 6.8-.1 7-2.5 7h-2.5V41.6c0-13 .3-17.6 1.3-17.9 2.2-1 8.3-.7 11.6.4zm127 0c6.2 2.2 8.1 11.3 3.5 16.8-2.5 3-2.5 3.3-1 5.6.9 1.3 2.5 4.7 3.6 7.5l2 5h-2.3c-1.8 0-2.7-1.3-5-7-2.6-6.4-3.1-7-5.8-7h-2.9v7c0 6.8-.1 7-2.5 7h-2.5V41.6c0-13 .3-17.6 1.3-17.9 2.2-1 8.3-.7 11.6.4zM858 28c0 3.9.1 4 3.5 4 2.8 0 3.5.4 3.5 2s-.7 2-3.5 2H858v8.9c0 9.5 1.1 11.8 4.9 10.8 2.3-.6 3.8 2.2 1.9 3.5-2.7 1.6-6.6.8-8.7-1.8-1.9-2.4-2.1-4-2.1-17.4 0-8.1.3-15 .7-15.3 1.9-1.9 3.3-.5 3.3 3.3zm403 0c0 3.9.1 4 3.5 4 2.8 0 3.5.4 3.5 2s-.7 2-3.5 2h-3.5v8.9c0 9.5 1.1 11.8 4.9 10.8 2.3-.6 3.8 2.2 1.9 3.5-2.7 1.6-6.6.8-8.7-1.8-1.9-2.4-2.1-4-2.1-17.4 0-8.1.3-15 .7-15.3 1.9-1.9 3.3-.5 3.3 3.3zm310 0c0 3.9.1 4 3.5 4 2.8 0 3.5.4 3.5 2s-.7 2-3.5 2h-3.5v8.9c0 9.5 1.1 11.8 4.9 10.8 2.3-.6 3.8 2.2 1.9 3.5-2.7 1.6-6.6.8-8.7-1.8-1.9-2.4-2.1-4-2.1-17.4 0-8.1.3-15 .7-15.3 1.9-1.9 3.3-.5 3.3 3.3zM380.5 33.6c4.1 4.4 4.6 17.5 1 23.1-2.8 4.3-10.2 4.3-13 0-2-3.1-2.9-10.4-2-16.2 1.3-8.8 8.8-12.5 14-6.9zm42.4-.2c1.5 1.6 2.4 4.1 2.8 8l.6 5.6h-13.5l.6 3.2c.8 4.3 3.3 6.1 7.4 5.4 2.4-.4 3.5-.1 3.9 1.1 1.9 4.9-10.4 4.1-13.6-.9-1.6-2.6-2.6-11.6-1.7-16.3 1.5-7.7 8.9-11 13.5-6.1zM445 32c2.8 1.5 4 6.5 4 17.1 0 9.2-.1 9.9-2 9.9s-2-.7-2-10.4c0-11.6-.9-13.6-6.1-13.6H436v12c0 11.3-.1 12-2 12s-2-.7-2-13.4c0-13.2 0-13.5 2.3-13.9 4.2-.8 8.8-.7 10.7.3zm114.5 1.6c4.1 4.4 4.6 17.5 1 23.1-2.8 4.3-10.2 4.3-13 0-2-3.1-2.9-10.4-2-16.2 1.3-8.8 8.8-12.5 14-6.9zm83.6-.7c2.2 1.8 2.4 2.7 2.7 13.9l.4 12.1-3.6.7c-8.2 1.5-13.6-1.8-13.6-8.2 0-4.8 2.8-7.5 8.3-8.1 4.1-.5 4.7-.9 4.7-2.9 0-3.5-2.8-5.6-6.6-5.2-2.3.3-3.5-.1-3.9-1.1-1.3-3.4 7.7-4.4 11.6-1.2zm40.8.5c1.5 1.6 2.4 4.1 2.8 8l.6 5.6h-13.5l.6 3.2c.8 4.3 3.3 6.1 7.4 5.4 2.4-.4 3.5-.1 3.9 1.1 1.9 4.9-10.4 4.1-13.6-.9-1.6-2.6-2.6-11.6-1.7-16.3 1.5-7.7 8.9-11 13.5-6.1zm124.2-.5c2.2 1.8 2.4 2.7 2.7 13.9l.4 12.1-3.6.7c-8.2 1.5-13.6-1.8-13.6-8.2 0-4.8 2.8-7.5 8.3-8.1 4.1-.5 4.7-.9 4.7-2.9 0-3.5-2.8-5.6-6.6-5.2-2.3.3-3.5-.1-3.9-1.1-1.3-3.4 7.7-4.4 11.6-1.2zM831 32c2.8 1.5 4 6.5 4 17.1 0 9.2-.1 9.9-2 9.9s-2-.7-2-10.4c0-11.6-.9-13.6-6.1-13.6H822v12c0 11.3-.1 12-2 12s-2-.7-2-13.4c0-13.2 0-13.5 2.3-13.9 4.2-.8 8.8-.7 10.7.3zm52.5 1.6c4.1 4.4 4.6 17.5 1 23.1-2.8 4.3-10.2 4.3-13 0-2-3.1-2.9-10.4-2-16.2 1.3-8.8 8.8-12.5 14-6.9zm67.4-.2c1.5 1.6 2.4 4.1 2.8 8l.6 5.6h-13.5l.6 3.2c.8 4.3 3.3 6.1 7.4 5.4 2.4-.4 3.5-.1 3.9 1.1 1.9 4.9-10.4 4.1-13.6-.9-1.6-2.6-2.6-11.6-1.7-16.3 1.5-7.7 8.9-11 13.5-6.1zm22.6-1.4c.6 0 2.2-.2 3.7-.6 8.1-1.9 10.8 2.3 10.8 17.1 0 9.8-.1 10.5-2 10.5s-2-.7-2-10.1c0-10.7-.9-13.9-4-13.9-4.4 0-4.5.5-4.2 12.5.4 11.1.3 11.5-1.7 11.5s-2.1-.5-2.1-10.1c0-11.6-.8-13.9-5-13.9h-3v12c0 11.3-.1 12-2 12s-2-.7-2-13.4c0-15.2-.2-14.8 8-14.1 2.5.3 5 .5 5.5.5zm46.5 0c2.8 1.5 4 6.5 4 17.1 0 9.2-.1 9.9-2 9.9s-2-.7-2-10.4c0-11.6-.9-13.6-6.1-13.6h-2.9v12c0 11.3-.1 12-2 12s-2-.7-2-13.4c0-13.2 0-13.5 2.3-13.9 4.2-.8 8.8-.7 10.7.3zm24.5 1.6c4.1 4.4 4.6 17.5 1 23.1-2.8 4.3-10.2 4.3-13 0-2-3.1-2.9-10.4-2-16.2 1.3-8.8 8.8-12.5 14-6.9zm20.3-1.8c.7.5 1 1.6.6 2.5-.4 1.2-1.4 1.5-3.5 1-6-1.2-8.1 4.6-2.7 7.5 8.1 4.3 10.1 10 5.2 14.9-2.2 2.2-3.2 2.5-7.5 2.1-5.7-.6-6.2-.9-5.3-3.2.5-1.2 1.4-1.5 4.5-1 6.7 1.1 9.5-3.9 4.2-7.3-8.5-5.2-10.5-10.2-5.8-14.8 2.4-2.5 7.6-3.3 10.3-1.7zm108.2.2c2.8 1.5 4 6.5 4 17.1 0 9.2-.1 9.9-2 9.9s-2-.7-2-10.4c0-11.6-.9-13.6-6.1-13.6h-2.9v12c0 11.3-.1 12-2 12s-2-.7-2-13.4c0-13.2 0-13.5 2.3-13.9 4.2-.8 8.8-.7 10.7.3zm23.9 1.4c1.5 1.6 2.4 4.1 2.8 8l.6 5.6h-13.5l.6 3.2c.8 4.3 3.3 6.1 7.4 5.4 2.4-.4 3.5-.1 3.9 1.1 1.9 4.9-10.4 4.1-13.6-.9-1.6-2.6-2.6-11.6-1.7-16.3 1.5-7.7 8.9-11 13.5-6.1zm266.6.2c4.1 4.4 4.6 17.5 1 23.1-2.8 4.3-10.2 4.3-13 0-2-3.1-2.9-10.4-2-16.2 1.3-8.8 8.8-12.5 14-6.9zm70.3-2c2.2.6 2.2.9 2.2 16.1v15.5l-2.9 2.9c-2.1 2-3.9 2.9-6.3 2.9-4.1 0-6.3-1.3-5.5-3.3.4-1.2 1.5-1.4 4-1 3.9.6 6.7-1.5 6.7-5.1 0-1.9-.4-2.2-3-1.8-6.6.9-10.7-5.6-9.7-15.3.3-2.9 1.1-6.2 1.8-7.3 2.3-3.6 7.2-5 12.7-3.6zm60 .2c.7.5 1 1.6.6 2.5-.4 1.2-1.4 1.5-3.5 1-6-1.2-8.1 4.6-2.7 7.5 8.1 4.3 10.1 10 5.2 14.9-2.2 2.2-3.2 2.5-7.5 2.1-5.7-.6-6.2-.9-5.3-3.2.5-1.2 1.4-1.5 4.5-1 6.7 1.1 9.5-3.9 4.2-7.3-8.5-5.2-10.5-10.2-5.8-14.8 2.4-2.5 7.6-3.3 10.3-1.7zm53.1 1.6c1.5 1.6 2.4 4.1 2.8 8l.6 5.6h-13.5l.6 3.2c.8 4.3 3.3 6.1 7.4 5.4 2.4-.4 3.5-.1 3.9 1.1 1.9 4.9-10.4 4.1-13.6-.9-1.6-2.6-2.6-11.6-1.7-16.3 1.5-7.7 8.9-11 13.5-6.1zm19.9-1.6c.7.5 1 1.6.6 2.5-.4 1.2-1.4 1.5-3.5 1-6-1.2-8.1 4.6-2.7 7.5 8.1 4.3 10.1 10 5.2 14.9-2.2 2.2-3.2 2.5-7.5 2.1-5.7-.6-6.2-.9-5.3-3.2.5-1.2 1.4-1.5 4.5-1 6.7 1.1 9.5-3.9 4.2-7.3-8.5-5.2-10.5-10.2-5.8-14.8 2.4-2.5 7.6-3.3 10.3-1.7zm19.1 1.6c1.5 1.6 2.4 4.1 2.8 8l.6 5.6h-13.5l.6 3.2c.8 4.3 3.3 6.1 7.4 5.4 2.4-.4 3.5-.1 3.9 1.1 1.9 4.9-10.4 4.1-13.6-.9-1.6-2.6-2.6-11.6-1.7-16.3 1.5-7.7 8.9-11 13.5-6.1zm60 0c1.5 1.6 2.4 4.1 2.8 8l.6 5.6h-13.5l.6 3.2c.8 4.3 3.3 6.1 7.4 5.4 2.4-.4 3.5-.1 3.9 1.1 1.9 4.9-10.4 4.1-13.6-.9-1.6-2.6-2.6-11.6-1.7-16.3 1.5-7.7 8.9-11 13.5-6.1zM666 33.6c0 .8-2.2 5.7-5 10.8-2.7 5.1-5 9.6-5 9.9 0 .4 2.3.7 5 .7 4.3 0 5 .3 5 2 0 1.8-.7 2-7.5 2-7 0-7.5-.1-7.5-2.2 0-1.2 2.2-6.3 5-11.5l5-9.3h-4.5c-3.8 0-4.5-.3-4.5-2 0-1.8.7-2 7-2 5.7 0 7 .3 7 1.6zm82.6 1.1c1.2 5.4 4.6 18.3 4.9 18.3.2 0 1.7-5.5 4.5-16.8.8-3.1 1.6-4.2 3-4.2 1.1 0 2 .3 2 .6s-1.4 6-3 12.6c-4.7 18.9-7.9 24.3-13.7 23.6-3.7-.4-3.8-3.2 0-3.6 3.4-.4 6.3-5.2 4.8-8-.9-1.6-5-15.8-6.5-22.5-.5-2.2-.3-2.7 1.4-2.7 1.3 0 2.2.9 2.6 2.7zm391.4 7.7c0 11.6.9 13.6 6.1 13.6h2.9V44c0-11.3.1-12 2-12s2 .7 2 13.5v13.4l-3.5.7c-1.9.3-5.1.3-7 0-5.2-1-6.5-4.3-6.5-17.1 0-9.8.1-10.5 2-10.5s2 .7 2 10.4zm574.6-7.7c.3 1.6 1.6 6.6 2.8 11.3l2.2 8.5 2.3-9.5c1.3-5.2 2.5-10.3 2.8-11.3.2-.9 1.3-1.7 2.4-1.7 1.5 0 1.9.5 1.5 1.7-.2 1-1.9 7.1-3.6 13.5-2.7 9.8-3.5 11.8-5.1 11.8-2.2 0-2.9-1.6-6.3-13.5-3.9-13.5-3.9-13.5-1.6-13.5 1.3 0 2.2.9 2.6 2.7zm-25.6 70.5v22.3l-3.8 2.1c-2 1.2-13.5 7.8-25.4 14.8l-21.8 12.5V83h51v22.2zm83-3.2v19h-71.5l5.5-3.3c46-26.9 59.8-34.6 62.8-34.6l3.2-.1v19zm-747 83c0 .6-4.7 18.6-10.5 40.1-5.8 21.6-10.5 39.3-10.5 39.5 0 .2-61.6.4-137 .4-84.3 0-137-.4-137-.9s4.7-18.6 10.5-40.1 10.5-39.3 10.5-39.6c0-.2 61.7-.4 137-.4 91.8 0 137 .3 137 1zm68 511.2v104.3l-8.3 4.6-8.2 4.6-.3-17.8-.2-17.9h-36l-.2-45-.3-45.1-19.9 34.6-20 34.5H928v-50.6c0-27.8.3-50.3.8-50.1.4.2 5 3 10.3 6.1l9.5 5.6 51.3-.2 51.4-.3 20.6-35.7c11.3-19.7 20.7-35.8 20.9-35.8.1 0 .2 46.9.2 104.2zm-242.5-29.5c-.2 1.6-.7 13.3-1 26-.5 18.7-.3 23.3.7 23.3.7 0 13.8-1.9 29.1-4.1 15.2-2.3 28-4 28.3-3.7.4.5-4.8 22.5-9.7 41l-1 3.8H806.2l9 15.6c4.9 8.6 8.8 15.7 8.6 15.8-.2.1-5.6 0-12-.2l-11.8-.4v-41.5l-21.6-37.4c-11.9-20.6-22-38.2-22.5-39.2-.9-1.6 1.6-1.7 47-1.7H851l-.5 2.7zM1038 964v150H738V814h300v150zm170.8 92.3l-.3 47.3-26.2-7-26.3-7.1v-161l26.3-7 26.2-7 .3 47.2c.1 26 .1 68.6 0 94.6zm-115.8-47v63.4l-8.2-2.2-8.3-2.2-.3-59.1-.2-59.1 5.7-1.6c3.2-.9 6.3-1.8 6.8-2 .6-.2 1.8-.4 2.8-.4 1.6-.1 1.7 3.6 1.7 63.2zm-508 154.4v51.8l-32.3 18.5-32.2 18.6-.3-61.5c-.1-33.8-.1-61.5 0-61.7.3-.3 62.9-17.2 64.1-17.3.4-.1.7 23.2.7 51.6zm246.9-42.8c.8.5 1.1 1.6.7 2.8-.5 1.5-1.3 1.9-3.1 1.5-3-.5-5.5 1.3-5.5 3.9 0 1.5.8 1.9 4 1.9 3.6 0 4 .2 4 2.5 0 2.2-.4 2.5-4 2.5h-4v18h-7v-28.2l2.9-2.9c2.2-2.2 3.9-2.9 6.8-2.9 2.1 0 4.4.4 5.2.9zm121.1 13.5c0 13.6.1 14.5 2 15.1 4.1 1.3 1.6 6.1-2.6 5.1-6.1-1.6-6.4-2.5-6.4-18.7 0-16.1-.4-15.1 5.8-15.8.9-.1 1.2 3.4 1.2 14.3zm-224.9-9.7c.8.8.8 1.7.1 3-.8 1.4-2.3 1.8-6.4 1.8-4.6 0-5.3.3-5.3 2 0 1.4 1.5 2.7 5.4 4.6 6.3 3 8.1 5.1 8.1 9.5 0 6.8-7.2 10.7-16.2 9-5.1-1-6-1.9-4.9-4.8.9-2.4 1.2-2.5 4.8-1.5 5.2 1.3 9.3.3 9.3-2.4 0-1.5-1.4-2.6-5.4-4.4-5.9-2.6-8.6-5.6-8.6-9.5 0-3.1 2.5-6.8 5.4-8.1 2.7-1.1 12.3-.6 13.7.8zm184 0c.8.8.8 1.7.1 3-.8 1.4-2.3 1.8-6.4 1.8-4.6 0-5.3.3-5.3 2 0 1.4 1.5 2.7 5.4 4.6 6.3 3 8.1 5.1 8.1 9.5 0 6.8-7.2 10.7-16.2 9-5.1-1-6-1.9-4.9-4.8.9-2.4 1.2-2.5 4.8-1.5 5.2 1.3 9.3.3 9.3-2.4 0-1.5-1.4-2.6-5.4-4.4-5.9-2.6-8.6-5.6-8.6-9.5 0-3.1 2.5-6.8 5.4-8.1 2.7-1.1 12.3-.6 13.7.8zm80.9 2.8c0 3.4.1 3.5 4 3.5 3.6 0 4 .2 4 2.5 0 2.2-.4 2.5-4 2.5h-4v5.9c0 6.5 1.4 8.6 5.4 7.9 1.9-.4 2.6 0 3 1.6.7 2.8-1.1 3.8-6.7 3.3-7.6-.7-8.1-1.7-8.5-16.7-.4-12.8-.3-12.8 2-13.3 4.6-.9 4.8-.8 4.8 2.8zm-241.3 3.3c.7.4 1 1.7.7 2.9-.5 1.8-1.1 2-4.4 1.6-3.1-.4-4-.1-5.4 1.8-2.1 3-2.1 7.8 0 10.8 1.3 1.9 2.4 2.2 5.5 1.9 3.2-.3 4 0 4.5 1.5.8 2.5-1.1 3.7-5.9 3.7-10.1 0-15.6-9.1-11.1-18.5.8-1.8 3-4 4.7-4.9 3.4-1.7 9.4-2.1 11.4-.8zm20.1 1.6c1.3 1.3 1.8 4 2 11.5.4 9.6.3 9.8-2 10.4-5 1.4-11.5.7-14.2-1.4-5.7-4.5-1.8-12.9 6-12.9 2.2 0 3.4-.5 3.4-1.4 0-2.3-2.8-3.9-6-3.4-2.7.4-4-.6-4-3.2 0-2.5 12.3-2.2 14.8.4zm25.3.5c2.8 2.8 2.9 3.3 2.9 12v9.1h-7v-8.3c0-8.6-.8-10.7-4.2-10.7-1.6 0-1.8 1-1.8 9.5v9.5h-7v-11.4c0-13-.6-12.2 9.3-12.5 4.1-.1 5.3.3 7.8 2.8zm54.9-1.4c1.6.9 3.6 2.9 4.5 4.5 3.2 6.2 1.1 14.6-4.5 17.5-8.3 4.3-17-1.6-17-11.5 0-9.1 9-14.6 17-10.5zm25.4-.7c.3.5.3 1.7 0 2.8-.4 1.6-1.2 1.9-4 1.6l-3.4-.4v19.2h-7v-11c0-10.5.1-11.1 2.3-12 2.8-1.1 11.4-1.3 12.1-.2zm57.6.7c1.6.9 3.6 2.9 4.5 4.5 3.2 6.2 1.1 14.6-4.5 17.5-8.3 4.3-17-1.6-17-11.5 0-9.1 9-14.6 17-10.5zm100 0c1.6.9 3.6 2.9 4.5 4.5 3.2 6.2 1.1 14.6-4.5 17.5-8.3 4.3-17-1.6-17-11.5 0-9.1 9-14.6 17-10.5zm28.1 1.4c2.8 2.8 2.9 3.3 2.9 12v9.1h-7v-8.3c0-8.6-.8-10.7-4.2-10.7-1.6 0-1.8 1-1.8 9.5v9.5h-7v-11.4c0-13-.6-12.2 9.3-12.5 4.1-.1 5.3.3 7.8 2.8zm-96.1 6.4c0 8.6.8 10.7 4.2 10.7 1.6 0 1.8-1 1.8-9.5v-9.5h7V1153.7l-3.1.7c-7 1.4-10.9.7-14-2.3-2.8-2.8-2.9-3.3-2.9-12v-9.1h7v8.3zm46 3.2v11.5h-7v-23h7v11.5zm14 43v19.5l-37.2.1-37.3.1 7 1.9c3.9 1.1 9.4 2.7 12.3 3.5l5.2 1.5v41.4l-24.3-24.3-24.2-24.2h-59l19.5-19.5 19.5-19.5H1027v19.5z"/><path d="M1760 36.5c-1.5 1.8-2.5 10.3-1.6 13.9.8 3.4 3.3 5.6 6.2 5.6h2.5l-.3-10.3c-.3-10.1-.3-10.2-2.9-10.5-1.4-.2-3.1.4-3.9 1.3zM1331.1 29.1c-.6 1.8-1.1 7.1-1.1 11.9 0 10 1.3 15 4 15s4-5 4-15-1.3-15-4-15c-1.1 0-2.2 1.2-2.9 3.1zM372 36.6c-.8.9-1.6 4.4-1.8 7.8-.3 7.4 1.2 11.1 4.8 11.1 1.6 0 2.9-.9 3.7-2.5 1.6-3.2 1.6-11.8 0-15-1.5-3-4.9-3.7-6.7-1.4zM551 36.6c-.8.9-1.6 4.4-1.8 7.8-.3 7.4 1.2 11.1 4.8 11.1 1.6 0 2.9-.9 3.7-2.5 1.6-3.2 1.6-11.8 0-15-1.5-3-4.9-3.7-6.7-1.4zM875 36.6c-.8.9-1.6 4.4-1.8 7.8-.3 7.4 1.2 11.1 4.8 11.1 1.6 0 2.9-.9 3.7-2.5 1.6-3.2 1.6-11.8 0-15-1.5-3-4.9-3.7-6.7-1.4zM1036 36.6c-.8.9-1.6 4.4-1.8 7.8-.3 7.4 1.2 11.1 4.8 11.1 1.6 0 2.9-.9 3.7-2.5 1.6-3.2 1.6-11.8 0-15-1.5-3-4.9-3.7-6.7-1.4zM1455 36.6c-.8.9-1.6 4.4-1.8 7.8-.3 7.4 1.2 11.1 4.8 11.1 1.6 0 2.9-.9 3.7-2.5 1.6-3.2 1.6-11.8 0-15-1.5-3-4.9-3.7-6.7-1.4zM1525.5 36.4c-2.6 1.9-3.3 11.7-1.1 15.1 1.3 1.9 2.4 2.5 4.4 2.3 2.7-.3 2.7-.3 3-9.6.3-9.1.2-9.2-2.1-9.2-1.3 0-3.1.6-4.2 1.4zM756 863.5V895h63v-63h-63v31.5zm54 0V886h-45v-45h45v22.5z"/><path d="M774 863.5V877h27v-27h-27v13.5zM837 836.5v4.5h-9v9h9v9h9v9h-9v9h-9v27h-36v18h-9v9h-9v9h18v-9h27v-9h9v9h9v9h9v9h-9v18h-9v-18h-9v-9h-9v9h-9v18h27v9h9v9h9v-18h18v-9h-18v-9h9v-9h9v9h81v-9h-36v-9h-9v9h-27v-18h9v-18h9v18h18v-9h-9v-9h18v9h9v9h9v9h9v-18h-18v-9h18v-18h-9v-9h9v-9h-9v-9h9v-18h-9v-9h-27v9h-9v-9h-9v9h9v9h-18v-9h-9v-9h-36v4.5zm36 9v4.5h9v9h9v9h-9v-9h-9v-9h-18v9h9v9h-9v-9h-9v-9h9v-9h18v4.5zm63 0v4.5h-9v9h-9v36h-9v-9h-9v18h-9v-27h18v-18h9v-18h18v4.5zM882 886v9h-9v9h-9v9h9v9h-18v18h-9v-9h-9v-18h-9v-9h27v-18h-9v9h-9v-9h9v-9h36v9zm-63 31.5v4.5h-18v-9h18v4.5zM954 863.5V895h63v-63h-63v31.5zm54 0V886h-45v-45h45v22.5z"/><path d="M972 863.5V877h27v-27h-27v13.5zM954 913v9h9v18h9v-9h27v9h9v18h-9v-9h-9v9h9v27h-9v18h-18v-9h9v-9h-9v-9h18v-9h-9v-18h-9v9h-9v-9h-9v18h9v18h-18v-27h-9v9h-9v9h9v9h-9v18h-9v-18h-9v9h-27v-9h18v-9h9v-18h-18v9h-9v-9h-9v9h9v18h-9v9h-9v-9h-9v9h-9v9h9v9h-18v-18h-9v-9h-9v-9h-27v-9h-9v18h-9v-9h-9v-9h-9v27h27v9h18v9h9v9h18v36h9v27h9v9h9v-27h-9v-9h27v9h-9v9h9v-9h27v27h18v-9h-9v-18h-9v-9h9v-27h-9v-18h-18v9h9v9h-9v9h-9v9h-9v-18h9v-27h45v9h-9v9h9v-9h18v9h-9v9h-9v9h9v18h18v27h-18v9h18v-9h9v-27h9v27h9v9h9v-9h9v9h18v-9h9v-18h-9v-18h-9v9h-9v9h-9v18h-9v-27h9v-9h9v-9h-9v-27h9v-9h9v18h-9v9h9v-9h9v18h9v-18h-9v-9h9v-99h-9v-9h-9v18h-18v-9h-9v-9h-18v9zm-9 76.5v4.5h18v18h-18v-9h-9v-18h9v4.5zm63 4.5v9h-9v-18h9v9zm-180 13.5v4.5h9v9h27v9h-18v9h9v9h-9v9h-9v-9h9v-9h-9v-18h-9v-9h-18v-9h18v4.5zm144 27v13.5h-27v-27h27v13.5zM765 917.5v4.5h-9v36h9v-36h9v-9h-9v4.5z"/><path d="M756 1016.5v4.5h36v-9h-36v4.5zM756 1061.5v31.5h63v-63h-63v31.5zm54 0v22.5h-45v-45h45v22.5z"/><path d="M774 1061.5v13.5h27v-27h-27v13.5zM918 1070.5v4.5h18v-9h-18v4.5zM882 1084v9h9v-18h-9v9zM209 45.5V80h49V67h-33V50h27V37h-27V24h31V11h-47v34.5zM201 127.5V162h16v-22.3l.1-22.2 3.5 4c4.1 4.5 17 23.7 22.9 33.7l3.9 6.8H261V93h-16v40.2l-7.6-10.8c-4.2-6-11-15.1-15.1-20.2l-7.5-9.2H201v34.5zM203 181.5v6.5h21v56h16v-56h21v-13h-58v6.5zM209 291.5V326h49v-13h-33v-17h27v-13h-27v-13h31v-13h-47v34.5zM213.5 339.6c-1.6.3-4 .7-5.2.9l-2.3.5v67h16v-23h3.9c4.7 0 6.5 1.9 14.3 14.6l5.1 8.4h17.8l-2.8-5c-1.5-2.8-5.4-8.6-8.5-13l-5.7-8 2.7-1.4c11.6-6 13.8-24 4.1-33.7-5.2-5.2-11.3-7-24.9-7.4-6.3-.2-12.8-.1-14.5.1zm25.9 15.8c2.9 1.8 4.1 5.4 3.2 9.1-1 3.9-4.9 5.8-13.2 6.3l-7.4.5v-18.6l7.4.5c4.6.3 8.5 1.1 10 2.2zM441 956.2v80.8h79V896.5l-39.5-10.6-39.5-10.6v80.9zM1633 1422.5v41.5h59v-16h-40v-20h33v-16h-33v-15h37v-16h-56v41.5zM1621.2 1486.8c.2.5 6.2 9.4 13.5 19.8s13.3 19.2 13.5 19.5c.2.4-2.9 5.1-6.8 10.5-7.3 10.1-15.2 21.9-19.3 28.6l-2.3 3.8h21.9l8.2-12.5c4.5-6.8 8.6-12.7 9.1-13 1.2-.7 7.9 7.8 13.8 17.6l4.7 7.8 10.7.1h10.7l-10-15.3c-5.4-8.3-11.9-18-14.4-21.3l-4.5-6.2 9.6-13.8c5.3-7.7 11.7-16.7 14.1-20.2l4.4-6.2h-10.8l-10.8.1-7.4 11c-4.1 6-8 11.4-8.7 12-.9.7-3.4-2.2-9.6-11l-8.3-12.1h-10.8c-6 0-10.7.4-10.5.8zM1651 1632.5v41.5h19v-83h-19v41.5zM1625 1704v8h25v67h19v-67h25v-16h-69v8z"/></svg>